<?xml version="1.0" encoding="UTF-8" standalone="no"?>
<!-- Created with Inkscape (http://www.inkscape.org/) -->

<svg
   width="200"
   height="303"
   viewBox="0 0 52.916666 80.168749"
   version="1.1"
   id="svg5"
   inkscape:version="1.2.2 (b0a8486541, 2022-12-01)"
   sodipodi:docname="avatar_not_found.svg"
   xmlns:inkscape="http://www.inkscape.org/namespaces/inkscape"
   xmlns:sodipodi="http://sodipodi.sourceforge.net/DTD/sodipodi-0.dtd"
   xmlns="http://www.w3.org/2000/svg"
   xmlns:svg="http://www.w3.org/2000/svg">
  <sodipodi:namedview
     id="namedview7"
     pagecolor="#ffffff"
     bordercolor="#cccccc"
     borderopacity="1"
     inkscape:showpageshadow="0"
     inkscape:pageopacity="1"
     inkscape:pagecheckerboard="0"
     inkscape:deskcolor="#d1d1d1"
     inkscape:document-units="mm"
     showgrid="false"
     showguides="true"
     inkscape:zoom="2.7280679"
     inkscape:cx="89.44059"
     inkscape:cy="122.24769"
     inkscape:window-width="1920"
     inkscape:window-height="1008"
     inkscape:window-x="0"
     inkscape:window-y="0"
     inkscape:window-maximized="1"
     inkscape:current-layer="layer1">
    <sodipodi:guide
       position="93.555991,63.227159"
       orientation="0,-1"
       id="guide1038"
       inkscape:locked="false" />
    <sodipodi:guide
       position="90.812414,48.137479"
       orientation="0,-1"
       id="guide1040"
       inkscape:locked="false" />
  </sodipodi:namedview>
  <defs
     id="defs2" />
  <g
     inkscape:label="Layer 1"
     inkscape:groupmode="layer"
     id="layer1">
    <rect
       style="fill:#000080;stroke:none;stroke-width:0.871835;stroke-linecap:square;stroke-linejoin:round;paint-order:markers fill stroke;stop-color:#000000"
       id="rect234"
       width="52.916668"
       height="80.01313"
       x="1.4671524e-07"
       y="0.077809915"
       ry="0" />
    <g
       id="g598"
       transform="translate(-39.006954,-9.6985613)">
      <path
         id="circle723"
         style="fill:#ffcc00;stroke-width:0.215791;stroke-linecap:square;stroke-linejoin:round;paint-order:markers fill stroke;stop-color:#000000"
         d="m 58.526153,75.136279 a 2.5496512,2.5496512 0 0 0 -2.561804,2.12134 2.5496512,2.5496512 0 0 0 2.085756,2.941382 2.5496512,2.5496512 0 0 0 2.941219,-2.085759 2.5496512,2.5496512 0 0 0 -2.085756,-2.941219 2.5496512,2.5496512 0 0 0 -0.379415,-0.03575 z m -0.248145,0.6758 c 0.08806,9.53e-4 0.158611,0.01906 0.191367,0.05978 0.131023,0.162912 -0.0097,1.104831 -0.171598,1.148687 -0.161926,0.04385 -0.758894,-0.698359 -0.727991,-0.905126 0.02317,-0.155077 0.444029,-0.306187 0.708222,-0.303341 z m 1.06328,0.223789 c 0.236417,0.0019 0.836609,0.610961 0.777335,0.80944 -0.06219,0.208241 -1.0093,0.496668 -1.155009,0.35174 -0.145714,-0.144929 0.137669,-1.093602 0.345567,-1.15691 0.0098,-0.0029 0.02048,-0.0043 0.0321,-0.0043 z m -2.390047,0.646066 c 0.2346,-0.0059 0.911693,0.634551 0.86068,0.826996 -0.05266,0.19865 -1.015844,0.427692 -1.174622,0.279303 -0.158777,-0.148393 0.08116,-1.053349 0.29259,-1.103611 0.0066,-0.0014 0.01378,-0.0024 0.02135,-0.0029 z m 1.481599,0.748864 a 0.10369507,0.10369507 0 0 1 0.104222,0.07655 0.10369507,0.10369507 0 0 1 -0.07307,0.127159 0.10369507,0.10369507 0 0 1 -0.127157,-0.07291 0.10369507,0.10369507 0 0 1 0.07307,-0.127154 0.10369507,0.10369507 0 0 1 0.02293,-0.0038 z m 1.683725,0.104385 c 0.09377,4.77e-4 0.167074,0.01516 0.201809,0.04762 0.158777,0.148389 -0.08116,1.053344 -0.292589,1.103606 -0.211434,0.05026 -0.934689,-0.625809 -0.882034,-0.824464 0.04114,-0.155195 0.637935,-0.328937 0.972814,-0.326749 z m -1.394298,0.141392 a 0.10369507,0.10369507 0 0 1 0.104221,0.07654 0.10369507,0.10369507 0 0 1 -0.07307,0.127159 0.10369507,0.10369507 0 0 1 -0.127158,-0.07291 0.10369507,0.10369507 0 0 1 0.07291,-0.127317 0.10369507,0.10369507 0 0 1 0.02309,-0.0033 z m -0.415317,0.112449 a 0.10369507,0.10369507 0 0 1 0.104221,0.07654 0.10369507,0.10369507 0 0 1 -0.07291,0.127159 0.10369507,0.10369507 0 0 1 -0.127159,-0.07291 0.10369507,0.10369507 0 0 1 0.07291,-0.127159 0.10369507,0.10369507 0 0 1 0.02294,-0.0038 z m -0.470198,0.345729 c 0.07255,8.6e-5 0.127991,0.01187 0.155311,0.03909 0.14571,0.144924 -0.137674,1.093597 -0.345571,1.156909 -0.207901,0.06331 -0.87163,-0.596934 -0.809443,-0.805175 0.05053,-0.169194 0.685309,-0.39119 0.999703,-0.3908 z m 0.837592,0.213827 c 0.182196,0.0038 0.741478,0.706557 0.711542,0.906862 -0.0309,0.206768 -0.768565,0.406472 -0.899588,0.24356 -0.131024,-0.162912 0.0097,-1.104831 0.171598,-1.148687 0.0051,-0.0014 0.01061,-0.0019 0.01645,-0.0019 z" />
      <path
         id="path801"
         style="font-weight:600;font-size:19.6219px;line-height:1.25;font-family:'URW Gothic';-inkscape-font-specification:'URW Gothic, Semi-Bold';fill:#ffffff;stroke-width:0.424614"
         d="m 48.101333,78.538515 c -0.310818,0.321009 -0.570683,0.443297 -0.932456,0.443297 -0.698068,0 -1.263657,-0.580875 -1.263657,-1.284038 0,-0.305723 0.117194,-0.631827 0.310819,-0.856026 0.229293,-0.270055 0.555398,-0.412725 0.937552,-0.412725 0.438203,0 0.553161,0.06606 0.873594,0.315185 l 0.456748,-0.454173 c -0.03977,-0.0557 -0.09554,-0.09927 -0.09726,-0.100496 -0.346486,-0.280245 -0.789785,-0.433108 -1.24837,-0.433108 -1.064937,0 -1.936249,0.871311 -1.936249,1.936248 0,1.090414 0.881503,1.961724 1.982107,1.961724 0.774499,0 1.441996,-0.428012 1.737528,-1.115888 z m 34.438033,0.824877 h 0.66331 l 0.360208,-0.839019 h 1.1553 l 0.34703,0.839019 h 0.663307 l -1.36176,-3.246262 h -0.47442 z m 1.243157,-1.414475 0.347029,-0.98398 0.34703,0.98398 z m -4.199491,1.414475 h 0.601811 V 77.00447 l 1.357367,2.358922 h 0.672095 V 76.11713 h -0.601811 v 2.363315 l -1.34419,-2.363315 h -0.685272 z m -2.143678,-3.303368 c -0.96641,0 -1.713181,0.733593 -1.713181,1.682433 0,0.940055 0.755556,1.678041 1.708789,1.678041 0.944447,0 1.673648,-0.733593 1.673648,-1.678041 0,-0.935662 -0.74238,-1.682433 -1.669256,-1.682433 z m -0.0088,0.579847 c 0.601811,0 1.07184,0.483205 1.07184,1.106979 0,0.628168 -0.45685,1.093801 -1.07184,1.093801 -0.614989,0 -1.098194,-0.483205 -1.098194,-1.098194 0,-0.628166 0.47442,-1.102586 1.098194,-1.102586 z m -2.956348,2.723521 h 0.60181 v -2.670809 h 0.601811 V 76.11713 h -1.80541 v 0.575453 h 0.601811 z m -3.672358,0 h 0.66331 l 0.360208,-0.839019 h 1.1553 l 0.34703,0.839019 h 0.663307 l -1.36176,-3.246262 h -0.47442 z m 1.243157,-1.414475 0.347029,-0.98398 0.34703,0.98398 z m -3.619646,1.414475 h 0.601811 v -1.243155 l 0.852198,1.243155 h 0.742379 l -0.878533,-1.199228 c 0.250387,-0.0615 0.373387,-0.118605 0.513954,-0.237211 0.224032,-0.188887 0.333853,-0.443669 0.333853,-0.768734 0,-0.333851 -0.118606,-0.610596 -0.342638,-0.799486 C 70.037529,76.17863 69.804714,76.11713 69.361042,76.11713 h -0.935661 z m 0.601833,-1.695611 v -0.975198 h 0.267959 c 0.281136,0 0.434884,0.03075 0.531526,0.114212 0.105427,0.08346 0.15814,0.210854 0.15814,0.368993 0,0.342639 -0.197676,0.491993 -0.663311,0.491993 z m -4.120424,1.695611 h 0.663308 l 0.360208,-0.839019 h 1.1553 l 0.34703,0.839019 h 0.66331 l -1.36176,-3.246262 h -0.47442 z m 1.243155,-1.414475 0.347029,-0.98398 0.34703,0.98398 z m -4.928694,1.414475 h 0.60181 v -2.433597 l 0.847807,2.433597 h 0.49199 l 0.847807,-2.433597 v 2.433597 h 0.601811 V 76.11713 H 63.78661 l -0.865376,2.459955 -0.874162,-2.459955 h -0.825843 z m -7.661525,0.0459 h 2.081718 v -0.575453 h -1.479908 v -0.755556 h 1.431588 v -0.575456 h -1.431588 v -0.764343 h 1.479908 V 76.16303 h -2.081718 z m -3.250654,0 h 0.60181 v -2.358919 l 1.357368,2.358919 h 0.672095 V 76.16303 h -0.60181 v 2.363316 L 50.994323,76.16303 H 50.30905 Z m -0.62818,-3.236937 -0.601855,0.61071 v 2.626287 h 0.601855 z"
         sodipodi:nodetypes="csscscccsssccccccccccccccccccccccccccsssssssssscccccccccccccccccccccccccccccscsccccscssccccccccccccccccccccccccccccccccccccccccccccccccccccccccc" />
      <rect
         style="fill:#ffcc00;fill-opacity:1;stroke-width:1.12709;stroke-linecap:square;stroke-linejoin:round;paint-order:markers fill stroke;stop-color:#000000"
         id="rect855"
         width="12.6195"
         height="0.19315562"
         x="45.961487"
         y="80.036469" />
    </g>
    <ellipse
       style="fill:#ffffff;stroke-width:0.851911;stroke-linecap:square;stroke-linejoin:round;paint-order:markers fill stroke;stop-color:#000000;opacity:0.50535332"
       id="path664"
       cx="26.458334"
       cy="22.791618"
       rx="10.046827"
       ry="10.280476" />
    <path
       id="rect718"
       style="fill:#ffffff;stroke-width:1.39053;stroke-linecap:square;stroke-linejoin:round;paint-order:markers fill stroke;stop-color:#000000;opacity:0.50535332"
       d="m 26.458593,35.408137 c -9.617665,0 -17.3606989,7.743031 -17.3606989,17.360698 v 1.745629 c 0,1.128263 0.107971,2.230289 0.311609,3.297474 H 43.507165 c 0.203637,-1.067185 0.311608,-2.169211 0.311608,-3.297474 v -1.745629 c 0,-9.617667 -7.742515,-17.360698 -17.36018,-17.360698 z" />
  </g>
</svg>
