<?xml version="1.0" encoding="UTF-8" standalone="no"?>
<!-- Created with Inkscape (http://www.inkscape.org/) -->

<svg
   width="64"
   height="64"
   viewBox="0 0 16.933333 16.933333"
   version="1.1"
   id="svg1908"
   inkscape:version="1.2.2 (b0a8486541, 2022-12-01)"
   sodipodi:docname="favicon.svg"
   xmlns:inkscape="http://www.inkscape.org/namespaces/inkscape"
   xmlns:sodipodi="http://sodipodi.sourceforge.net/DTD/sodipodi-0.dtd"
   xmlns="http://www.w3.org/2000/svg"
   xmlns:svg="http://www.w3.org/2000/svg">
  <sodipodi:namedview
     id="namedview1910"
     pagecolor="#ffffff"
     bordercolor="#cccccc"
     borderopacity="1"
     inkscape:showpageshadow="0"
     inkscape:pageopacity="1"
     inkscape:pagecheckerboard="0"
     inkscape:deskcolor="#d1d1d1"
     inkscape:document-units="mm"
     showgrid="false"
     inkscape:zoom="12.890506"
     inkscape:cx="31.961507"
     inkscape:cy="32.000295"
     inkscape:window-width="1920"
     inkscape:window-height="1008"
     inkscape:window-x="1920"
     inkscape:window-y="0"
     inkscape:window-maximized="1"
     inkscape:current-layer="layer1" />
  <defs
     id="defs1905" />
  <g
     inkscape:label="Layer 1"
     inkscape:groupmode="layer"
     id="layer1">
    <circle
       style="fill:#001638;fill-opacity:1;stroke-width:3.23021;stroke-linecap:square;stroke-linejoin:round;paint-order:markers fill stroke;stop-color:#000000"
       id="path2650"
       cx="8.4666662"
       cy="8.4666662"
       r="8.4666662" />
    <path
       id="circle723"
       style="fill:#ffcc00;stroke-width:0.504649;stroke-linecap:square;stroke-linejoin:round;paint-order:markers fill stroke;stop-color:#000000"
       d="M 8.5796863,2.5051189 A 5.9626106,5.9626106 0 0 0 2.5886607,7.4660792 5.9626106,5.9626106 0 0 0 7.4664031,14.344789 5.9626106,5.9626106 0 0 0 14.344733,9.4670636 5.9626106,5.9626106 0 0 0 9.4669791,2.5887192 5.9626106,5.9626106 0 0 0 8.5796863,2.5052386 Z M 7.9993647,4.0855385 C 8.205397,4.0876512 8.3703159,4.1301873 8.4469019,4.2253934 8.7533096,4.606373 8.4235916,6.8091433 8.045605,6.9117158 7.6669353,7.0143869 6.2708646,5.2785346 6.3431337,4.7949825 6.3973602,4.4323413 7.3815352,4.0789538 7.9993647,4.0855878 Z M 10.48595,4.6089012 c 0.552892,0.00493 1.956498,1.4287897 1.817889,1.8929541 C 12.158379,6.9888441 9.9434955,7.6633719 9.6027351,7.3244355 9.2619819,6.985506 9.9246853,4.7669397 10.410878,4.6188874 c 0.02345,-0.00704 0.04796,-0.0093 0.07504,-0.0093 z M 4.8966113,6.1197982 C 5.4452351,6.1057839 7.0286899,7.603751 6.9093917,8.0537954 6.7862413,8.5183542 4.5337377,9.054013 4.1624273,8.7069918 3.7911049,8.3599425 4.3522269,6.2436247 4.8466736,6.1260871 c 0.015423,-0.00211 0.032184,-0.00493 0.049931,-0.00704 z M 8.3614777,7.8710874 A 0.24250114,0.24250114 0 0 1 8.605208,8.0499855 0.24250114,0.24250114 0 0 1 8.4342538,8.3473577 0.24250114,0.24250114 0 0 1 8.1368745,8.1768754 0.24250114,0.24250114 0 0 1 8.3078287,7.8795242 a 0.24250114,0.24250114 0 0 1 0.053593,-0.0093 z m 3.9375443,0.2441177 c 0.219357,7.042e-4 0.390734,0.035564 0.471954,0.1113192 C 13.142293,8.5735454 12.581077,10.68987 12.086722,10.8074 11.592276,10.925037 9.9008609,9.3438851 10.024011,8.8793193 10.120126,8.5163752 11.515873,8.1100641 12.299022,8.115184 Z M 9.0383154,8.4458597 A 0.24250114,0.24250114 0 0 1 9.2820387,8.6247648 0.24250114,0.24250114 0 0 1 9.1110915,8.9221441 0.24250114,0.24250114 0 0 1 8.8137404,8.7516617 0.24250114,0.24250114 0 0 1 8.9842228,8.4539021 0.24250114,0.24250114 0 0 1 9.0383084,8.4468597 Z M 8.0670703,8.7088369 A 0.24250114,0.24250114 0 0 1 8.3108006,8.887742 0.24250114,0.24250114 0 0 1 8.1403112,9.1851142 0.24250114,0.24250114 0 0 1 7.842946,9.0146389 0.24250114,0.24250114 0 0 1 8.0134283,8.7172596 a 0.24250114,0.24250114 0 0 1 0.053593,-0.0093 z m -1.099614,0.8085306 c 0.1696654,1.76e-4 0.299323,0.027817 0.3632116,0.091431 C 7.6714214,9.9477069 7.0087107,12.166266 6.5225177,12.314347 6.0363246,12.462385 4.484124,10.918346 4.6295565,10.431358 4.747728,10.035688 6.232216,9.5165153 6.9674563,9.5174379 Z m 1.9587934,0.5000305 c 0.4260932,0.0093 1.7340283,1.652365 1.6640053,2.120811 -0.0723,0.483524 -1.797353,0.950569 -2.1037818,0.569589 -0.3064006,-0.381014 0.02331,-2.583778 0.4013039,-2.686329 0.01169,-0.0021 0.024789,-0.0049 0.038381,-0.0049 z" />
  </g>
</svg>
