<?xml version="1.0" encoding="UTF-8" standalone="no"?>
<!-- Created with Inkscape (http://www.inkscape.org/) -->

<svg
   width="154"
   height="20"
   viewBox="0 0 40.745832 5.2916667"
   version="1.1"
   id="svg5"
   inkscape:version="1.2.2 (b0a8486541, 2022-12-01)"
   sodipodi:docname="logo_cinemaratona.svg"
   xmlns:inkscape="http://www.inkscape.org/namespaces/inkscape"
   xmlns:sodipodi="http://sodipodi.sourceforge.net/DTD/sodipodi-0.dtd"
   xmlns="http://www.w3.org/2000/svg"
   xmlns:svg="http://www.w3.org/2000/svg">
  <sodipodi:namedview
     id="namedview7"
     pagecolor="#ffffff"
     bordercolor="#cccccc"
     borderopacity="1"
     inkscape:showpageshadow="0"
     inkscape:pageopacity="1"
     inkscape:pagecheckerboard="0"
     inkscape:deskcolor="#d1d1d1"
     inkscape:document-units="mm"
     showgrid="false"
     showguides="true"
     inkscape:zoom="6.7010673"
     inkscape:cx="84.464157"
     inkscape:cy="32.905206"
     inkscape:window-width="1920"
     inkscape:window-height="1008"
     inkscape:window-x="1920"
     inkscape:window-y="0"
     inkscape:window-maximized="1"
     inkscape:current-layer="layer1">
    <sodipodi:guide
       position="101.47481,-7.3926705"
       orientation="0,-1"
       id="guide1038"
       inkscape:locked="false" />
    <sodipodi:guide
       position="101.14535,-30.45513"
       orientation="0,-1"
       id="guide1040"
       inkscape:locked="false" />
    <sodipodi:guide
       position="-0.46445574,1.857509"
       orientation="1,0"
       id="guide1688"
       inkscape:locked="false" />
  </sodipodi:namedview>
  <defs
     id="defs2" />
  <g
     inkscape:label="Layer 1"
     inkscape:groupmode="layer"
     id="layer1">
    <g
       id="g1742"
       transform="translate(1.0583319,0.45316826)">
      <path
         id="circle723"
         style="fill:#ffcc00;stroke-width:0.215791;stroke-linecap:square;stroke-linejoin:round;paint-order:markers fill stroke;stop-color:#000000"
         d="M 12.375449,-0.3565321 A 2.5496512,2.5496512 0 0 0 9.8136451,1.7648081 2.5496512,2.5496512 0 0 0 11.899401,4.7061897 2.5496512,2.5496512 0 0 0 14.84062,2.6204309 2.5496512,2.5496512 0 0 0 12.754864,-0.3207886 2.5496512,2.5496512 0 0 0 12.375449,-0.35653686 Z m -0.248145,0.67579951 c 0.08806,9.5329e-4 0.158611,0.0190657 0.191367,0.0597807 0.131023,0.16291199 -0.0097,1.10483099 -0.171598,1.14868699 -0.161926,0.043851 -0.758894,-0.69835898 -0.727991,-0.9051269 0.02317,-0.15507599 0.444029,-0.30618628 0.708222,-0.30334079 z m 1.06328,0.22378891 c 0.236417,0.001907 0.836609,0.61096168 0.777335,0.80944078 -0.06219,0.2082408 -1.0093,0.4966674 -1.155009,0.3517392 -0.145714,-0.1449284 0.137669,-1.09360146 0.345567,-1.15690925 0.0098,-0.00286 0.02048,-0.00429 0.0321,-0.00429 z M 10.800537,1.1891228 c 0.2346,-0.00586 0.911693,0.6345507 0.86068,0.8269956 -0.05266,0.1986507 -1.015844,0.4276923 -1.174622,0.2793035 -0.158777,-0.1483934 0.08116,-1.0533488 0.29259,-1.1036109 0.0066,-0.00143 0.01378,-0.00238 0.02135,-0.00286 z m 1.481599,0.7488641 a 0.10369507,0.10369507 0 0 1 0.104222,0.076549 0.10369507,0.10369507 0 0 1 -0.07307,0.1271589 0.10369507,0.10369507 0 0 1 -0.127157,-0.072912 0.10369507,0.10369507 0 0 1 0.07307,-0.1271543 0.10369507,0.10369507 0 0 1 0.02293,-0.00382 z m 1.683725,0.1043849 c 0.09377,4.766e-4 0.167074,0.015158 0.201809,0.047617 0.158777,0.1483888 -0.08116,1.0533442 -0.292589,1.1036063 -0.211434,0.050262 -0.934689,-0.6258091 -0.882034,-0.8244646 0.04114,-0.1551951 0.637935,-0.3289364 0.972814,-0.3267486 z m -1.394298,0.1413916 a 0.10369507,0.10369507 0 0 1 0.104221,0.076545 0.10369507,0.10369507 0 0 1 -0.07307,0.1271589 0.10369507,0.10369507 0 0 1 -0.127158,-0.072908 0.10369507,0.10369507 0 0 1 0.07291,-0.1273162 0.10369507,0.10369507 0 0 1 0.02309,-0.00334 z m -0.415317,0.1124498 a 0.10369507,0.10369507 0 0 1 0.104221,0.076545 0.10369507,0.10369507 0 0 1 -0.07291,0.1271589 0.10369507,0.10369507 0 0 1 -0.127159,-0.072908 0.10369507,0.10369507 0 0 1 0.07291,-0.127159 0.10369507,0.10369507 0 0 1 0.02294,-0.00382 z m -0.470198,0.3457286 c 0.07255,8.58e-5 0.127991,0.011868 0.155311,0.039085 0.14571,0.1449235 -0.137674,1.0935966 -0.345571,1.1569092 -0.207901,0.063308 -0.87163,-0.596934 -0.809443,-0.8051748 0.05053,-0.1691942 0.685309,-0.391191 0.999703,-0.3908001 z m 0.837592,0.213827 c 0.182196,0.00382 0.741478,0.7065573 0.711542,0.906862 -0.0309,0.206768 -0.768565,0.4064721 -0.899588,0.2435602 -0.131024,-0.1629121 0.0097,-1.1048311 0.171598,-1.1486872 0.0051,-0.00143 0.01061,-0.00191 0.01645,-0.00191 z" />
      <path
         id="path801"
         style="font-weight:600;font-size:19.6219px;line-height:1.25;font-family:'URW Gothic';-inkscape-font-specification:'URW Gothic, Semi-Bold';fill:#ffffff;stroke-width:0.424614"
         d="M 1.9506295,3.0457034 C 1.6398107,3.366713 1.3799458,3.4890009 1.0181731,3.4890009 c -0.69806824,0 -1.26365654,-0.5808753 -1.26365654,-1.2840385 0,-0.3057223 0.11719378,-0.6318268 0.3108188,-0.8560257 0.2292924,-0.2700554 0.55539737,-0.4127255 0.93755144,-0.4127255 0.4382037,0 0.5531611,0.0660623 0.8735943,0.315185 L 2.3332294,0.79722336 C 2.2934568,0.74152747 2.2376903,0.69795598 2.2359712,0.6967277 1.8894847,0.41648244 1.4461859,0.26361997 0.98760093,0.26361997 c -1.06493669,0 -1.93624835,0.87131033 -1.93624835,1.93624753 0,1.0904143 0.88150249,1.9617247 1.98210672,1.9617247 0.7744993,0 1.4419954,-0.4280129 1.7375279,-1.1158888 z M 36.388662,3.8705806 h 0.66331 L 37.41218,3.0315613 h 1.1553 l 0.34703,0.8390193 h 0.663307 l -1.36176,-3.24626171 h -0.47442 z m 1.243157,-1.4144751 0.347029,-0.9839798 0.34703,0.9839798 z m -4.199491,1.4144751 h 0.601811 V 1.5116592 l 1.357367,2.3589214 h 0.672095 V 0.62431889 H 35.46179 V 2.9876341 L 34.1176,0.62431889 H 33.432328 Z M 31.28865,0.56721294 c -0.96641,0 -1.713181,0.73359236 -1.713181,1.68243236 0,0.9400551 0.755556,1.6780413 1.708789,1.6780413 0.944447,0 1.673648,-0.7335924 1.673648,-1.6780413 0,-0.9356613 -0.74238,-1.68243236 -1.669256,-1.68243236 z m -0.0088,0.57984696 c 0.601811,0 1.07184,0.483205 1.07184,1.1069792 0,0.628168 -0.45685,1.0938005 -1.07184,1.0938005 -0.614989,0 -1.098194,-0.483205 -1.098194,-1.0981943 0,-0.6281654 0.47442,-1.1025854 1.098194,-1.1025854 z m -2.956348,2.7235207 h 0.60181 V 1.1997721 h 0.601811 V 0.62431889 h -1.80541 V 1.1997721 h 0.601811 z m -3.672358,0 h 0.66331 l 0.360208,-0.8390193 h 1.1553 l 0.34703,0.8390193 h 0.663307 l -1.36176,-3.24626171 h -0.47442 z m 1.243157,-1.4144751 0.347029,-0.9839798 0.34703,0.9839798 z m -3.619646,1.4144751 h 0.601811 V 2.6274259 l 0.852198,1.2431547 h 0.742379 L 23.59251,2.6713532 c 0.250387,-0.0615 0.373387,-0.1186057 0.513954,-0.2372113 0.224032,-0.1888877 0.333853,-0.4436689 0.333853,-0.7687347 0,-0.3338507 -0.118606,-0.6105955 -0.342638,-0.79948584 C 23.886825,0.6858186 23.65401,0.62431889 23.210338,0.62431889 H 22.274677 Z M 22.876488,2.1749695 V 1.1997721 h 0.267959 c 0.281136,0 0.434884,0.030749 0.531526,0.1142119 0.105427,0.083463 0.15814,0.2108539 0.15814,0.3689931 0,0.3426382 -0.197676,0.4919924 -0.663311,0.4919924 z m -4.120424,1.6956111 h 0.663308 L 19.77958,3.0315613 h 1.1553 l 0.34703,0.8390193 h 0.66331 L 20.58346,0.62431889 h -0.47442 z m 1.243155,-1.4144751 0.347029,-0.9839798 0.34703,0.9839798 z m -4.928694,1.4144751 h 0.60181 V 1.4369834 l 0.847807,2.4335972 h 0.49199 L 17.859939,1.4369834 V 3.8705806 H 18.46175 V 0.62431889 H 17.635906 L 16.77053,3.0842735 15.896368,0.62431889 H 15.070525 Z M 7.4089999,3.9164786 H 9.4907183 V 3.3410256 H 8.0108102 V 2.5854696 H 9.4423976 V 2.0100138 H 8.0108102 V 1.2456703 H 9.4907183 V 0.6702171 H 7.4089999 Z m -3.250654,0 H 4.7601563 V 1.55756 l 1.3573681,2.3589188 h 0.672095 V 0.6702171 H 6.1878088 V 3.0335323 L 4.8436191,0.6702171 H 4.1583459 Z M 3.5301657,0.67954216 2.9283115,1.290252 v 2.6262866 h 0.6018542 z"
         sodipodi:nodetypes="csscscccsssccccccccccccccccccccccccccsssssssssscccccccccccccccccccccccccccccscsccccscssccccccccccccccccccccccccccccccccccccccccccccccccccccccccc" />
      <rect
         style="fill:#ffcc00;fill-opacity:1;stroke-width:1.12709;stroke-linecap:square;stroke-linejoin:round;paint-order:markers fill stroke;stop-color:#000000"
         id="rect855"
         width="12.6195"
         height="0.19315562"
         x="-0.18921569"
         y="4.5436597" />
    </g>
  </g>
</svg>
