<?xml version="1.0" encoding="UTF-8" standalone="no"?>
<!-- Created with Inkscape (http://www.inkscape.org/) -->

<svg
   width="154"
   height="20"
   viewBox="0 0 40.745832 5.2916667"
   version="1.1"
   id="svg5"
   inkscape:version="1.2.2 (b0a8486541, 2022-12-01)"
   sodipodi:docname="logo_cinemaratona.svg"
   xmlns:inkscape="http://www.inkscape.org/namespaces/inkscape"
   xmlns:sodipodi="http://sodipodi.sourceforge.net/DTD/sodipodi-0.dtd"
   xmlns="http://www.w3.org/2000/svg"
   xmlns:svg="http://www.w3.org/2000/svg">
  <sodipodi:namedview
     id="namedview7"
     pagecolor="#ffffff"
     bordercolor="#cccccc"
     borderopacity="1"
     inkscape:showpageshadow="0"
     inkscape:pageopacity="1"
     inkscape:pagecheckerboard="0"
     inkscape:deskcolor="#d1d1d1"
     inkscape:document-units="mm"
     showgrid="false"
     showguides="true"
     inkscape:zoom="6.7010673"
     inkscape:cx="71.033461"
     inkscape:cy="33.502126"
     inkscape:window-width="1920"
     inkscape:window-height="1008"
     inkscape:window-x="1920"
     inkscape:window-y="0"
     inkscape:window-maximized="1"
     inkscape:current-layer="layer1">
    <sodipodi:guide
       position="101.47481,-7.3926705"
       orientation="0,-1"
       id="guide1038"
       inkscape:locked="false" />
    <sodipodi:guide
       position="101.14535,-30.45513"
       orientation="0,-1"
       id="guide1040"
       inkscape:locked="false" />
    <sodipodi:guide
       position="-0.46445574,1.857509"
       orientation="1,0"
       id="guide1688"
       inkscape:locked="false" />
  </sodipodi:namedview>
  <defs
     id="defs2" />
  <g
     inkscape:label="Layer 1"
     inkscape:groupmode="layer"
     id="layer1">
    <path
       id="circle723"
       style="fill:#ffcc00;stroke-width:0.215791;stroke-linecap:square;stroke-linejoin:round;paint-order:markers fill stroke;stop-color:#000000"
       d="M 13.433781,0.09663616 A 2.5496512,2.5496512 0 0 0 10.871977,2.2179764 2.5496512,2.5496512 0 0 0 12.957733,5.159358 2.5496512,2.5496512 0 0 0 15.898952,3.0735992 2.5496512,2.5496512 0 0 0 13.813196,0.13237966 2.5496512,2.5496512 0 0 0 13.433781,0.0966314 Z m -0.248145,0.67579951 c 0.08806,9.5329e-4 0.158611,0.0190657 0.191367,0.0597807 0.131023,0.16291199 -0.0097,1.10483103 -0.171598,1.14868703 -0.161926,0.043851 -0.758894,-0.698359 -0.727991,-0.9051269 0.02317,-0.15507603 0.444029,-0.30618632 0.708222,-0.30334083 z m 1.06328,0.22378891 c 0.236417,0.001907 0.836609,0.61096172 0.777335,0.80944082 -0.06219,0.2082408 -1.0093,0.4966674 -1.155009,0.3517392 -0.145714,-0.1449284 0.137669,-1.0936015 0.345567,-1.1569093 0.0098,-0.00286 0.02048,-0.00429 0.0321,-0.00429 z M 11.858869,1.6422911 c 0.2346,-0.00586 0.911693,0.6345507 0.86068,0.8269956 -0.05266,0.1986507 -1.015844,0.4276923 -1.174622,0.2793035 -0.158777,-0.1483934 0.08116,-1.0533488 0.29259,-1.1036109 0.0066,-0.00143 0.01378,-0.00238 0.02135,-0.00286 z m 1.481599,0.7488641 a 0.10369507,0.10369507 0 0 1 0.104222,0.076549 0.10369507,0.10369507 0 0 1 -0.07307,0.1271589 0.10369507,0.10369507 0 0 1 -0.127157,-0.072912 0.10369507,0.10369507 0 0 1 0.07307,-0.1271543 0.10369507,0.10369507 0 0 1 0.02293,-0.00382 z m 1.683725,0.1043849 c 0.09377,4.766e-4 0.167074,0.015158 0.201809,0.047617 0.158777,0.1483888 -0.08116,1.0533442 -0.292589,1.1036063 -0.211434,0.050262 -0.934689,-0.6258091 -0.882034,-0.8244646 0.04114,-0.1551951 0.637935,-0.3289364 0.972814,-0.3267486 z m -1.394298,0.1413916 a 0.10369507,0.10369507 0 0 1 0.104221,0.076545 0.10369507,0.10369507 0 0 1 -0.07307,0.1271589 0.10369507,0.10369507 0 0 1 -0.127158,-0.072908 0.10369507,0.10369507 0 0 1 0.07291,-0.1273162 0.10369507,0.10369507 0 0 1 0.02309,-0.00334 z m -0.415317,0.1124498 a 0.10369507,0.10369507 0 0 1 0.104221,0.076545 0.10369507,0.10369507 0 0 1 -0.07291,0.1271589 0.10369507,0.10369507 0 0 1 -0.127159,-0.072908 0.10369507,0.10369507 0 0 1 0.07291,-0.127159 0.10369507,0.10369507 0 0 1 0.02294,-0.00382 z M 12.74438,3.0951101 c 0.07255,8.58e-5 0.127991,0.011868 0.155311,0.039085 0.14571,0.1449235 -0.137674,1.0935966 -0.345571,1.1569092 -0.207901,0.063308 -0.87163,-0.596934 -0.809443,-0.8051748 0.05053,-0.1691942 0.685309,-0.391191 0.999703,-0.3908001 z m 0.837592,0.213827 c 0.182196,0.00382 0.741478,0.7065573 0.711542,0.906862 -0.0309,0.206768 -0.768565,0.4064721 -0.899588,0.2435602 -0.131024,-0.1629121 0.0097,-1.1048311 0.171598,-1.1486872 0.0051,-0.00143 0.01061,-0.00191 0.01645,-0.00191 z" />
    <path
       id="path801"
       style="font-weight:600;font-size:19.6219px;line-height:1.25;font-family:'URW Gothic';-inkscape-font-specification:'URW Gothic, Semi-Bold';fill:#ffffff;stroke-width:0.424614"
       d="M 3.0089614,3.4988717 C 2.6981426,3.8198813 2.4382777,3.9421692 2.076505,3.9421692 c -0.6980682,0 -1.26365654,-0.5808753 -1.26365654,-1.2840385 0,-0.3057223 0.11719378,-0.6318268 0.31081884,-0.8560257 0.2292924,-0.2700554 0.5553973,-0.4127255 0.9375514,-0.4127255 0.4382037,0 0.5531611,0.066062 0.8735943,0.315185 L 3.3915613,1.2503916 C 3.3517887,1.1946957 3.2960222,1.1511242 3.2943031,1.149896 2.9478166,0.8696507 2.5045178,0.71678823 2.0459328,0.71678823 c -1.06493666,0 -1.93624832,0.87131037 -1.93624832,1.93624757 0,1.0904143 0.88150249,1.9617247 1.98210672,1.9617247 0.7744993,0 1.4419954,-0.4280129 1.7375279,-1.1158888 z M 37.446994,4.3237489 h 0.66331 l 0.360208,-0.8390193 h 1.1553 l 0.34703,0.8390193 h 0.663307 l -1.36176,-3.2462618 h -0.47442 z M 38.690151,2.9092738 39.03718,1.925294 39.38421,2.9092738 Z M 34.49066,4.3237489 h 0.601811 V 1.9648275 l 1.357367,2.3589214 h 0.672095 V 1.0774871 H 36.520122 V 3.4408024 L 35.175932,1.0774871 H 34.49066 Z M 32.346982,1.0203812 c -0.96641,0 -1.713181,0.7335924 -1.713181,1.6824324 0,0.9400551 0.755556,1.6780413 1.708789,1.6780413 0.944447,0 1.673648,-0.7335924 1.673648,-1.6780413 0,-0.9356613 -0.74238,-1.6824324 -1.669256,-1.6824324 z m -0.0088,0.579847 c 0.601811,0 1.07184,0.483205 1.07184,1.1069792 0,0.628168 -0.45685,1.0938005 -1.07184,1.0938005 -0.614989,0 -1.098194,-0.483205 -1.098194,-1.0981943 0,-0.6281654 0.47442,-1.1025854 1.098194,-1.1025854 z m -2.956348,2.7235207 h 0.60181 V 1.6529404 h 0.601811 V 1.0774871 h -1.80541 v 0.5754533 h 0.601811 z m -3.672358,0 h 0.66331 l 0.360208,-0.8390193 h 1.1553 l 0.34703,0.8390193 h 0.663307 l -1.36176,-3.2462618 h -0.47442 z m 1.243157,-1.4144751 0.347029,-0.9839798 0.34703,0.9839798 z m -3.619646,1.4144751 h 0.601811 V 3.0805942 l 0.852198,1.2431547 h 0.742379 L 24.650842,3.1245215 c 0.250387,-0.0615 0.373387,-0.1186057 0.513954,-0.2372113 0.224032,-0.1888877 0.333853,-0.4436689 0.333853,-0.7687347 0,-0.3338507 -0.118606,-0.6105955 -0.342638,-0.7994859 C 24.945157,1.1389869 24.712342,1.0774871 24.26867,1.0774871 H 23.333009 Z M 23.93482,2.6281378 V 1.6529404 h 0.267959 c 0.281136,0 0.434884,0.030749 0.531526,0.1142119 0.105427,0.083463 0.15814,0.2108539 0.15814,0.3689931 0,0.3426382 -0.197676,0.4919924 -0.663311,0.4919924 z m -4.120424,1.6956111 h 0.663308 l 0.360208,-0.8390193 h 1.1553 l 0.34703,0.8390193 h 0.66331 l -1.36176,-3.2462618 h -0.47442 z M 21.057551,2.9092738 21.40458,1.925294 21.75161,2.9092738 Z m -4.928694,1.4144751 h 0.60181 V 1.8901517 l 0.847807,2.4335972 h 0.49199 l 0.847807,-2.4335972 v 2.4335972 h 0.601811 V 1.0774871 H 18.694238 L 17.828862,3.5374418 16.9547,1.0774871 H 16.128857 Z M 8.4673318,4.3696469 H 10.54905 V 3.7941939 H 9.0691421 V 3.0386379 H 10.50073 V 2.4631821 H 9.0691421 V 1.6988386 H 10.54905 V 1.1233854 H 8.4673318 Z m -3.250654,0 H 5.8184882 V 2.0107283 l 1.3573681,2.3589188 h 0.672095 V 1.1233854 H 7.2461407 V 3.4867006 L 5.901951,1.1233854 H 5.2166778 Z M 4.5884976,1.1327104 3.9866434,1.7434203 v 2.6262866 h 0.6018542 z"
       sodipodi:nodetypes="csscscccsssccccccccccccccccccccccccccsssssssssscccccccccccccccccccccccccccccscsccccscssccccccccccccccccccccccccccccccccccccccccccccccccccccccccc" />
    <rect
       style="fill:#ffcc00;fill-opacity:1;stroke-width:1.12709;stroke-linecap:square;stroke-linejoin:round;paint-order:markers fill stroke;stop-color:#000000"
       id="rect855"
       width="12.6195"
       height="0.19315562"
       x="0.86911619"
       y="4.9968281" />
  </g>
</svg>
