<?xml version="1.0" encoding="UTF-8" standalone="no"?>
<!-- Created with Inkscape (http://www.inkscape.org/) -->

<svg
   width="200"
   height="303"
   viewBox="0 0 52.916666 80.168749"
   version="1.1"
   id="svg5"
   inkscape:version="1.2.2 (b0a8486541, 2022-12-01)"
   sodipodi:docname="movie_not_found.svg"
   xmlns:inkscape="http://www.inkscape.org/namespaces/inkscape"
   xmlns:sodipodi="http://sodipodi.sourceforge.net/DTD/sodipodi-0.dtd"
   xmlns="http://www.w3.org/2000/svg"
   xmlns:svg="http://www.w3.org/2000/svg">
  <sodipodi:namedview
     id="namedview7"
     pagecolor="#ffffff"
     bordercolor="#cccccc"
     borderopacity="1"
     inkscape:showpageshadow="0"
     inkscape:pageopacity="1"
     inkscape:pagecheckerboard="0"
     inkscape:deskcolor="#d1d1d1"
     inkscape:document-units="mm"
     showgrid="false"
     showguides="true"
     inkscape:zoom="0.53242128"
     inkscape:cx="683.66914"
     inkscape:cy="560.64626"
     inkscape:window-width="1920"
     inkscape:window-height="1008"
     inkscape:window-x="0"
     inkscape:window-y="0"
     inkscape:window-maximized="1"
     inkscape:current-layer="layer1">
    <sodipodi:guide
       position="93.555991,63.227159"
       orientation="0,-1"
       id="guide1038"
       inkscape:locked="false" />
    <sodipodi:guide
       position="90.812414,48.137479"
       orientation="0,-1"
       id="guide1040"
       inkscape:locked="false" />
  </sodipodi:namedview>
  <defs
     id="defs2" />
  <g
     inkscape:label="Layer 1"
     inkscape:groupmode="layer"
     id="layer1">
    <g
       id="g1693"
       transform="matrix(0.40442484,0,0,0.40442484,-18.56039,-31.22293)">
      <rect
         style="fill:#000080;stroke:none;stroke-width:2.15574;stroke-linecap:square;stroke-linejoin:round;paint-order:markers fill stroke;stop-color:#000000"
         id="rect234"
         width="130.84425"
         height="197.84425"
         x="45.893299"
         y="77.395691"
         ry="0" />
      <g
         id="g1657"
         transform="translate(1.8229652)">
        <path
           id="circle723"
           style="fill:#ffcc00;stroke-width:0.45273;stroke-linecap:square;stroke-linejoin:round;paint-order:markers fill stroke;stop-color:#000000"
           d="m 91.76389,250.03649 a 5.3491782,5.3491782 0 0 0 -5.374674,4.45058 5.3491782,5.3491782 0 0 0 4.375927,6.17103 5.3491782,5.3491782 0 0 0 6.170688,-4.37593 5.3491782,5.3491782 0 0 0 -4.375925,-6.17069 5.3491782,5.3491782 0 0 0 -0.796016,-0.075 z m -0.520607,1.41783 c 0.184755,0.002 0.332765,0.04 0.401489,0.12542 0.274887,0.34179 -0.02029,2.31794 -0.360014,2.40995 -0.33972,0.092 -1.592161,-1.46516 -1.527328,-1.89896 0.04862,-0.32535 0.931574,-0.64238 1.485853,-0.63641 z m 2.230765,0.46951 c 0.496003,0.004 1.755208,1.2818 1.630853,1.69821 -0.130471,0.43689 -2.117516,1.04201 -2.423216,0.73795 -0.305707,-0.30406 0.288831,-2.29438 0.725003,-2.4272 0.02045,-0.006 0.04297,-0.009 0.06736,-0.009 z m -5.014329,1.35545 c 0.492194,-0.0123 1.912737,1.33129 1.805711,1.73504 -0.110472,0.41677 -2.131245,0.8973 -2.464361,0.58598 -0.333115,-0.31133 0.170261,-2.20993 0.613855,-2.31538 0.01386,-0.003 0.02891,-0.005 0.0448,-0.006 z m 3.108403,1.57112 a 0.21755266,0.21755267 74.845668 0 1 0.218668,0.1606 0.21755266,0.21755267 74.845668 0 1 -0.153301,0.26678 0.21755266,0.21755267 74.845668 0 1 -0.266777,-0.15297 0.21755266,0.21755267 74.845668 0 1 0.153301,-0.26677 0.21755266,0.21755267 74.845668 0 1 0.04811,-0.008 z m 3.532461,0.219 c 0.196729,0.001 0.350523,0.0318 0.423397,0.0999 0.333115,0.31132 -0.170267,2.20992 -0.613855,2.31537 -0.443589,0.10545 -1.960981,-1.31295 -1.850509,-1.72973 0.08631,-0.3256 1.338388,-0.69011 2.040967,-0.68552 z m -2.925244,0.29664 a 0.21755266,0.21755267 74.845668 0 1 0.218662,0.16059 0.21755266,0.21755267 74.845668 0 1 -0.153296,0.26678 0.21755266,0.21755267 74.845668 0 1 -0.266777,-0.15296 0.21755266,0.21755267 74.845668 0 1 0.152967,-0.26711 0.21755266,0.21755267 74.845668 0 1 0.04844,-0.007 z m -0.871335,0.23592 a 0.21755266,0.21755267 74.845668 0 1 0.218662,0.16059 0.21755266,0.21755267 74.845668 0 1 -0.152963,0.26678 0.21755266,0.21755267 74.845668 0 1 -0.266777,-0.15296 0.21755266,0.21755267 74.845668 0 1 0.152962,-0.26678 0.21755266,0.21755267 74.845668 0 1 0.04812,-0.008 z m -0.986478,0.72534 c 0.152216,1.8e-4 0.268524,0.0249 0.325842,0.082 0.305701,0.30405 -0.288838,2.29437 -0.725009,2.4272 -0.436178,0.13282 -1.828684,-1.25237 -1.698214,-1.68926 0.106012,-0.35497 1.437779,-0.82072 2.097381,-0.8199 z m 1.757272,0.44861 c 0.382248,0.008 1.555624,1.48236 1.492818,1.9026 -0.06483,0.4338 -1.612454,0.85278 -1.887341,0.51099 -0.274887,-0.34179 0.02029,-2.31794 0.360014,-2.40995 0.01062,-0.003 0.02218,-0.004 0.03451,-0.004 z" />
        <g
           aria-label="C"
           id="text773"
           style="font-size:19.6219px;line-height:1.25;font-family:Alkatra;-inkscape-font-specification:Alkatra;fill:#ffffff;stroke-width:1.63515"
           transform="matrix(0.64209386,0,0,0.64209386,21.723857,178.19472)">
          <path
             id="path801"
             style="font-weight:600;font-family:'URW Gothic';-inkscape-font-specification:'URW Gothic, Semi-Bold';fill:#ffffff"
             d="m 71.86194,123.28424 c -1.196936,1.23618 -2.197653,1.7071 -3.590808,1.7071 -2.6882,0 -4.866231,-2.2369 -4.866231,-4.94472 0,-1.17731 0.451303,-2.43311 1.196936,-3.29648 0.882985,-1.03996 2.138787,-1.58937 3.610429,-1.58937 1.687484,0 2.130175,0.2544 3.364135,1.21375 l 1.758898,-1.74898 c -0.153161,-0.21448 -0.367913,-0.38227 -0.374533,-0.387 -1.334289,-1.0792 -3.041394,-1.66786 -4.807365,-1.66786 -4.100978,0 -7.456323,3.35534 -7.456323,7.45632 0,4.19909 3.394589,7.55443 7.63292,7.55443 2.982529,0 5.552998,-1.64824 6.691068,-4.29719 z m 128.5423,3.17653 h 2.55435 l 1.38713,-3.23099 h 4.44896 l 1.33638,3.23099 h 2.55434 l -5.24402,-12.50107 h -1.82695 z m 4.78729,-5.44702 1.33638,-3.78922 1.33638,3.78922 z m -16.17187,5.44702 h 2.31752 v -9.084 l 5.2271,9.084 h 2.58818 V 113.9597 h -2.31752 v 9.10092 l -5.17636,-9.10092 h -2.63892 z m -8.25512,-12.72098 c -3.72156,0 -6.59731,2.825 -6.59731,6.4789 0,3.62007 2.90958,6.46199 6.5804,6.46199 3.63698,0 6.44507,-2.825 6.44507,-6.46199 0,-3.60315 -2.85884,-6.4789 -6.42816,-6.4789 z m -0.0338,2.23294 c 2.31752,0 4.12756,1.86078 4.12756,4.26288 0,2.41902 -1.75929,4.21213 -4.12756,4.21213 -2.36827,0 -4.22905,-1.86078 -4.22905,-4.22905 0,-2.41901 1.82695,-4.24596 4.22905,-4.24596 z m -11.38464,10.48804 h 2.31752 v -10.28505 h 2.31752 v -2.21602 h -6.95256 v 2.21602 h 2.31752 z m -14.14193,0 h 2.55435 l 1.38713,-3.23099 h 4.44896 l 1.33638,3.23099 h 2.55434 l -5.24402,-12.50107 h -1.82695 z m 4.78729,-5.44702 1.33638,-3.78922 1.33638,3.78922 z m -13.93894,5.44702 h 2.31752 v -4.78728 l 3.28174,4.78728 h 2.85884 l -3.38324,-4.61812 c 0.96422,-0.23683 1.43788,-0.45674 1.97919,-0.91348 0.86273,-0.72739 1.28564,-1.70853 1.28564,-2.96033 0,-1.28563 -0.45674,-2.35135 -1.31947,-3.07875 -0.81198,-0.69356 -1.70853,-0.93039 -3.41707,-0.93039 h -3.60315 z m 2.31752,-6.52965 v -3.7554 h 1.03189 c 1.08263,0 1.6747,0.11841 2.04686,0.43982 0.40599,0.32141 0.60898,0.81198 0.60898,1.42096 0,1.31947 -0.76123,1.89462 -2.55435,1.89462 z m -15.86739,6.52965 h 2.55434 l 1.38713,-3.23099 h 4.44896 l 1.33638,3.23099 h 2.55435 l -5.24402,-12.50107 h -1.82695 z m 4.78728,-5.44702 1.33638,-3.78922 1.33638,3.78922 z m -18.97997,5.44702 h 2.31752 v -9.37157 l 3.26483,9.37157 h 1.89461 l 3.26483,-9.37157 v 9.37157 h 2.31752 V 113.9597 h -3.18025 l -3.33249,9.47307 -3.36632,-9.47307 h -3.18025 z m -25.428313,0.17675 h 6.715731 v -2.21602 h -4.398212 v -2.90958 H 99.4113 v -2.21603 h -4.212134 v -2.94342 h 4.398212 v -2.21602 h -6.715731 z m -12.517984,0 h 2.317519 v -9.08399 l 5.227106,9.08399 h 2.588179 v -12.50107 h -2.31752 v 9.10092 l -5.176357,-9.10092 h -2.638927 z m -2.419067,-12.46516 -2.317688,2.35179 v 10.1136 h 2.317688 z" />
        </g>
      </g>
      <path
         id="path1593"
         style="fill:#0044aa;fill-opacity:1;stroke:none;stroke-width:1.42;stroke-linecap:square;stroke-linejoin:round;paint-order:markers fill stroke;stop-color:#000000"
         d="m 149.26556,128.02877 a 53.669903,53.669903 0 0 0 -75.900267,1e-5 53.669903,53.669903 0 0 0 -3.66e-4,75.90063 53.669903,53.669903 0 0 0 75.900993,0 53.669903,53.669903 0 0 0 -3.6e-4,-75.90064 z m -5.67989,18.33031 a 37.767708,37.767708 0 0 1 -5.56443,46.32564 37.767708,37.767708 0 0 1 -46.325637,5.56442 z M 130.91662,133.72804 79.064562,185.5801 a 37.767708,37.767708 0 0 1 5.545052,-46.307 37.767708,37.767708 0 0 1 46.307006,-5.54506 z" />
    </g>
  </g>
</svg>
