<?xml version="1.0" encoding="UTF-8" standalone="no"?>
<svg
   clip-rule="evenodd"
   fill-rule="evenodd"
   stroke-linejoin="round"
   stroke-miterlimit="1.41421"
   viewBox="0 0 100 31"
   version="1.1"
   id="svg26"
   sodipodi:docname="amazon-prime-video-seeklogo.svg"
   width="100"
   height="31"
   inkscape:version="1.2.2 (b0a8486541, 2022-12-01)"
   xmlns:inkscape="http://www.inkscape.org/namespaces/inkscape"
   xmlns:sodipodi="http://sodipodi.sourceforge.net/DTD/sodipodi-0.dtd"
   xmlns="http://www.w3.org/2000/svg"
   xmlns:svg="http://www.w3.org/2000/svg">
  <defs
     id="defs30" />
  <sodipodi:namedview
     id="namedview28"
     pagecolor="#ffffff"
     bordercolor="#cccccc"
     borderopacity="1"
     inkscape:showpageshadow="0"
     inkscape:pageopacity="1"
     inkscape:pagecheckerboard="0"
     inkscape:deskcolor="#d1d1d1"
     showgrid="false"
     inkscape:zoom="2.2"
     inkscape:cx="225.45455"
     inkscape:cy="200.22727"
     inkscape:window-width="1920"
     inkscape:window-height="1008"
     inkscape:window-x="1920"
     inkscape:window-y="0"
     inkscape:window-maximized="1"
     inkscape:current-layer="svg26" />
  <g
     fill-rule="nonzero"
     id="g24"
     transform="matrix(0.23809524,0,0,0.23809524,-16.666667,-32.119077)">
    <g
       fill="#232f3e"
       id="g16">
      <path
         d="m 315.45,184.164 c 0.315,-1.049 0.63,-2.046 0.945,-3.096 2.414,-8.134 4.828,-16.216 7.242,-24.351 l 0.315,-0.945 c 0.263,-0.944 1.155,-1.521 2.099,-1.521 h 7.977 c 1.995,0 2.415,0.577 1.732,2.466 l -3.148,8.344 c -3.517,9.132 -7.033,18.316 -10.549,27.448 -0.105,0.315 -0.262,0.629 -0.367,0.944 -0.368,1.102 -1.47,1.837 -2.624,1.732 -2.31,-0.052 -4.619,-0.052 -6.928,0 -1.627,0.053 -2.571,-0.682 -3.149,-2.152 -1.312,-3.463 -2.676,-6.979 -3.988,-10.443 -3.149,-8.24 -6.35,-16.479 -9.499,-24.771 -0.315,-0.63 -0.525,-1.364 -0.682,-2.047 -0.158,-1.049 0.21,-1.574 1.259,-1.574 2.992,-0.052 5.983,0 8.922,0 1.259,0 1.837,0.84 2.152,1.942 0.577,1.994 1.154,4.041 1.784,6.035 2.152,7.295 4.251,14.642 6.402,21.937 -0.052,0.052 0,0.052 0.105,0.052 z"
         id="path2" />
      <path
         d="m 352.607,174.718 v 18.893 c -0.105,1.049 -0.578,1.522 -1.627,1.574 -2.834,0.053 -5.616,0.053 -8.45,0 -1.049,0 -1.522,-0.525 -1.627,-1.522 -0.052,-0.315 -0.052,-0.682 -0.052,-0.997 V 156.35 c 0.052,-1.627 0.472,-2.099 2.099,-2.099 h 7.557 c 1.627,0 2.1,0.472 2.1,2.099 z"
         id="path4" />
      <path
         d="m 346.781,135.41 c 1.05,-0.105 2.099,0.105 3.097,0.525 2.046,0.787 3.463,2.676 3.568,4.881 0.42,4.775 -2.781,7.189 -7.032,7.084 -0.577,0 -1.155,-0.105 -1.732,-0.21 -3.254,-0.787 -4.933,-3.306 -4.618,-6.927 0.262,-2.886 2.519,-5.038 5.615,-5.3 0.367,-0.053 0.735,-0.105 1.102,-0.053 z"
         id="path6" />
      <path
         d="m 489.895,178.496 c 0,-0.052 0,-0.052 0,0 z"
         id="path8" />
      <path
         d="m 489.948,171.464 v 0.21 c -0.21,-0.21 -0.315,-0.525 -0.21,-0.787 v -0.42 c 0,0 0,-0.053 0.052,-0.053 h -0.052 v -0.524 h 0.105 c 0,-0.053 -0.053,-0.053 -0.053,-0.105 -0.105,-0.997 -0.315,-1.995 -0.577,-2.939 -1.942,-6.928 -6.298,-11.493 -13.383,-13.278 -3.306,-0.787 -6.665,-0.892 -10.023,-0.367 -7.085,1.05 -12.176,4.828 -14.642,11.546 -2.415,6.402 -2.362,13.435 0.052,19.837 2.099,5.825 6.298,9.499 12.333,11.021 3.201,0.787 6.56,0.997 9.866,0.525 11.021,-1.312 15.587,-9.657 16.322,-16.899 h -0.053 v -0.735 c -0.052,-0.314 -0.105,-0.577 0.21,-0.787 v 0.105 c 0,-0.052 0.053,-0.157 0.105,-0.21 v -6.035 c 0,-0.052 -0.052,-0.052 -0.052,-0.105 z m -12.596,9.971 c -0.315,1.102 -0.787,2.1 -1.469,3.044 -1.155,1.627 -2.992,2.677 -4.986,2.834 -0.997,0.105 -1.994,0.105 -2.991,-0.105 -2.204,-0.42 -4.041,-1.889 -4.933,-3.936 -0.788,-1.627 -1.26,-3.411 -1.417,-5.195 -0.263,-3.097 -0.315,-6.193 0.42,-9.237 0.262,-1.207 0.787,-2.414 1.416,-3.464 1.155,-1.889 3.149,-3.096 5.353,-3.253 0.998,-0.105 1.995,-0.105 2.992,0.105 2.099,0.419 3.831,1.784 4.776,3.726 0.892,1.836 1.417,3.883 1.521,5.93 0.053,0.945 0.105,1.889 0.053,2.834 0.157,2.309 -0.105,4.566 -0.735,6.717 z"
         id="path10" />
      <path
         d="m 397.95,135.777 h -7.295 c -1.994,0 -2.362,0.368 -2.362,2.362 v 17.004 c 0,0.367 0.158,0.734 -0.105,1.102 -0.472,-0.053 -0.735,-0.368 -1.102,-0.577 -5.458,-3.202 -11.178,-3.779 -16.951,-1.103 -4.041,1.89 -6.56,5.301 -8.187,9.342 -1.574,3.883 -1.942,7.977 -1.837,12.123 0,3.883 0.892,7.714 2.624,11.178 1.994,3.831 4.881,6.77 9.079,8.03 5.721,1.784 11.074,0.892 15.954,-2.729 0.368,-0.21 0.578,-0.578 1.05,-0.683 0.262,0.578 0.472,1.207 0.577,1.837 0.21,0.84 0.945,1.417 1.837,1.417 h 1.26 c 1.889,0 3.726,0.053 5.562,0 1.47,0 1.89,-0.472 1.942,-1.994 v -55.314 c -0.052,-1.627 -0.472,-1.995 -2.046,-1.995 z m -9.604,38.626 v 9.551 c 0.105,0.63 -0.263,1.207 -0.84,1.47 -2.519,1.417 -5.406,1.994 -8.239,1.574 -2.415,-0.262 -4.514,-1.732 -5.616,-3.883 -0.84,-1.68 -1.312,-3.464 -1.469,-5.301 -0.42,-3.306 -0.158,-6.665 0.629,-9.866 0.263,-0.892 0.578,-1.732 1.05,-2.572 1.102,-2.046 3.201,-3.358 5.51,-3.516 2.782,-0.262 5.563,0.263 8.082,1.417 0.63,0.21 0.998,0.84 0.945,1.522 -0.105,3.254 -0.052,6.403 -0.052,9.604 z"
         id="path12" />
      <path
         d="m 429.648,178.549 c 3.043,-0.21 6.087,-0.787 8.816,-2.257 2.782,-1.364 4.724,-3.936 5.301,-6.98 0.367,-1.889 0.367,-3.883 -0.053,-5.772 -1.102,-4.724 -4.093,-7.663 -8.606,-9.185 -2.519,-0.787 -5.196,-1.102 -7.82,-0.997 -8.817,0.21 -15.534,4.671 -18.263,13.488 -1.837,5.825 -1.575,11.755 0.21,17.581 1.837,5.982 6.035,9.604 12.018,11.231 2.571,0.629 5.248,0.892 7.872,0.787 3.831,-0.053 7.662,-0.787 11.283,-2.152 1.522,-0.577 1.889,-1.102 1.889,-2.729 v -3.779 c -0.052,-1.521 -0.682,-2.046 -2.204,-1.679 -1.154,0.315 -2.256,0.577 -3.411,0.84 -3.516,0.839 -7.19,0.997 -10.758,0.367 -3.569,-0.682 -5.983,-2.729 -6.928,-6.298 -0.262,-1.049 -0.472,-2.099 -0.577,-3.201 0.262,0 0.525,0 0.735,0.105 3.463,0.63 6.979,0.892 10.496,0.63 z m -10.969,-8.397 c 0.368,-2.047 0.84,-4.041 2.099,-5.72 1.942,-2.572 4.619,-3.307 7.663,-2.992 0.262,0 0.472,0.105 0.734,0.105 3.674,0.578 4.566,3.516 3.884,6.35 -0.525,2.1 -2.257,2.887 -4.199,3.254 -1.049,0.21 -2.151,0.315 -3.253,0.263 -2.152,-0.053 -4.251,-0.21 -6.35,-0.525 -0.473,-0.053 -0.683,-0.263 -0.578,-0.735 z"
         id="path14" />
    </g>
    <g
       fill="#00a8e1"
       id="g22">
      <path
         d="m 278.017,264.403 c -2.864,-0.155 -5.728,-0.26 -8.592,-0.469 -7.662,-0.577 -15.272,-1.731 -22.724,-3.463 -25.768,-5.983 -48.387,-18.001 -68.119,-35.477 -1.837,-1.627 -3.569,-3.306 -5.353,-4.986 -0.42,-0.367 -0.787,-0.892 -0.997,-1.417 -0.315,-0.734 -0.158,-1.522 0.367,-2.099 0.525,-0.577 1.365,-0.787 2.099,-0.472 0.473,0.21 0.945,0.42 1.365,0.682 18.84,11.651 39.412,20.153 60.982,25.191 7.242,1.679 14.537,2.991 21.884,3.936 10.549,1.312 21.202,1.784 31.803,1.417 5.721,-0.158 11.388,-0.683 17.056,-1.417 13.225,-1.68 26.293,-4.671 38.941,-8.869 6.665,-2.205 13.172,-4.724 19.522,-7.663 0.945,-0.524 2.1,-0.682 3.149,-0.419 1.732,0.419 2.782,2.204 2.362,3.936 -0.053,0.209 -0.158,0.472 -0.263,0.682 -0.419,0.787 -0.997,1.469 -1.731,1.994 -6.036,4.723 -12.543,8.869 -19.418,12.333 -12.963,6.56 -26.818,11.231 -41.092,13.907 -8.224,1.467 -16.499,2.358 -24.827,2.675 l -0.049,0.002 v 0.21 h -6.298 v -0.21 z m 96.579,-51.165 c 3.463,0.105 6.875,0.315 10.233,1.207 0.945,0.263 1.837,0.578 2.729,0.998 1.207,0.472 1.995,1.626 2.152,2.886 0.21,1.469 0.263,2.991 0.158,4.513 -0.683,8.974 -3.464,17.634 -8.082,25.348 -1.68,2.782 -3.727,5.301 -6.088,7.505 -0.472,0.472 -1.05,0.84 -1.68,1.05 -0.997,0.262 -1.626,-0.263 -1.679,-1.26 0.053,-0.525 0.158,-1.05 0.367,-1.574 1.837,-4.933 3.622,-9.814 5.039,-14.905 0.839,-2.781 1.417,-5.615 1.784,-8.502 0.105,-1.049 0.157,-2.099 0.052,-3.148 -0.052,-1.785 -1.207,-3.307 -2.938,-3.831 -1.627,-0.525 -3.307,-0.84 -5.039,-0.945 -4.828,-0.21 -9.656,0 -14.432,0.63 l -6.35,0.787 c -0.682,0.052 -1.312,0 -1.679,-0.63 -0.368,-0.63 -0.21,-1.259 0.157,-1.889 0.42,-0.577 0.945,-1.102 1.575,-1.47 3.883,-2.781 8.239,-4.46 12.857,-5.563 3.569,-0.734 7.19,-1.102 10.864,-1.207 z"
         id="path18" />
      <path
         d="m 110.252,170.31 c -0.21,-2.729 -0.944,-5.406 -2.046,-7.873 -2.152,-4.513 -5.458,-7.819 -10.496,-8.974 -5.773,-1.259 -10.969,0 -15.692,3.517 -0.315,0.314 -0.682,0.577 -1.102,0.787 -0.105,-0.053 -0.21,-0.105 -0.21,-0.158 -0.157,-0.525 -0.262,-1.049 -0.42,-1.574 -0.42,-1.312 -0.945,-1.784 -2.361,-1.784 -1.575,0 -3.202,0.052 -4.776,0 -1.207,-0.053 -2.309,0.104 -3.149,1.049 0,18.368 0,36.789 0.052,55.104 0.683,1.103 1.732,1.312 2.939,1.26 1.89,-0.052 3.779,0 5.668,0 3.307,0 3.307,0 3.307,-3.254 v -14.957 c 0,-0.367 -0.158,-0.787 0.209,-1.102 2.624,2.047 5.826,3.307 9.132,3.621 4.618,0.473 8.817,-0.682 12.333,-3.831 2.571,-2.361 4.461,-5.405 5.458,-8.764 1.417,-4.303 1.522,-8.659 1.154,-13.067 z m 142.38,7.714 c 3.936,0.735 7.977,0.787 11.913,0.158 2.309,-0.315 4.513,-0.998 6.56,-2.1 2.361,-1.364 4.093,-3.253 4.828,-5.877 1.837,-6.613 -0.997,-13.278 -7.872,-15.745 -3.359,-1.102 -6.928,-1.469 -10.444,-0.997 -8.292,0.945 -13.697,5.511 -16.164,13.435 -1.732,5.406 -1.522,10.916 -0.105,16.374 1.837,6.98 6.455,11.126 13.435,12.595 3.989,0.893 8.03,0.735 12.018,0.105 2.099,-0.367 4.199,-0.892 6.193,-1.679 1.207,-0.472 1.837,-1.207 1.784,-2.572 -0.052,-1.259 0,-2.571 0,-3.883 0,-1.574 -0.63,-2.047 -2.151,-1.679 -1.522,0.367 -2.992,0.682 -4.514,0.997 -3.254,0.682 -6.612,0.682 -9.866,0.105 -4.461,-0.893 -7.347,-4.724 -7.085,-9.447 0.472,0.053 0.997,0.105 1.47,0.21 z m -72.213,17.214 h -7.033 c -1.837,0 -2.309,-0.525 -2.309,-2.309 v -36.422 c 0,-0.42 0.053,-0.839 0.158,-1.259 0.209,-0.63 0.839,-0.997 1.469,-0.997 h 6.56 c 0.945,0 1.522,0.577 1.837,1.469 0.262,0.735 0.42,1.417 0.682,2.204 0.525,0 0.84,-0.367 1.207,-0.577 2.887,-1.784 5.93,-3.306 9.342,-3.936 2.624,-0.525 5.248,-0.525 7.872,0 2.466,0.525 4.67,1.994 6.087,4.093 0.105,0.158 0.21,0.263 0.315,0.368 -0.052,0.052 0,0.052 0.053,0.157 1.312,-0.787 2.676,-1.627 4.093,-2.361 3.674,-1.89 7.767,-2.834 11.913,-2.625 2.992,0.158 5.721,0.998 7.82,3.202 1.994,2.047 2.729,4.566 2.939,7.295 0.052,0.577 0.052,1.154 0.052,1.784 v 27.185 c 0,2.361 -0.315,2.676 -2.676,2.676 h -6.403 c -0.42,0 -0.84,0 -1.259,-0.052 -0.63,-0.053 -1.155,-0.578 -1.26,-1.207 -0.105,-0.578 -0.105,-1.155 -0.105,-1.732 v -24.299 c 0.053,-0.997 -0.052,-1.941 -0.315,-2.886 -0.42,-1.627 -1.889,-2.781 -3.568,-2.886 -3.097,-0.21 -6.193,0.419 -9.027,1.731 -0.42,0.105 -0.682,0.525 -0.63,0.945 v 27.605 c 0,0.525 0,0.997 -0.105,1.522 0,0.734 -0.577,1.259 -1.312,1.259 -0.787,0.053 -1.574,0.053 -2.414,0.053 h -5.563 c -1.942,0 -2.361,-0.473 -2.361,-2.414 V 168 c 0,-0.892 -0.053,-1.836 -0.263,-2.729 -0.367,-1.784 -1.889,-3.043 -3.673,-3.148 -3.149,-0.21 -6.351,0.419 -9.185,1.784 -0.419,0.105 -0.682,0.577 -0.577,0.997 v 27.972 c 0,1.942 -0.42,2.362 -2.361,2.362 z m -53.11,-0.053 h -6.823 c -0.367,0 -0.787,0 -1.154,-0.052 -0.683,-0.053 -1.208,-0.63 -1.26,-1.312 -0.053,-0.42 -0.053,-0.84 -0.053,-1.26 v -35.686 c 0,-2.415 0.263,-2.677 2.677,-2.677 h 5.038 c 1.365,0 1.994,0.472 2.362,1.784 0.367,1.312 0.682,2.624 0.997,4.041 0.367,-0.105 0.682,-0.315 0.892,-0.629 0.945,-0.945 1.942,-1.837 2.991,-2.677 2.729,-2.099 6.141,-3.149 9.552,-2.886 1.364,0.052 1.837,0.472 1.942,1.784 0.105,1.784 0.052,3.621 0.052,5.405 0.053,0.735 0,1.417 -0.105,2.152 -0.21,0.945 -0.577,1.312 -1.522,1.417 -0.735,0.053 -1.417,0 -2.152,-0.052 -3.516,-0.315 -6.927,0.367 -10.233,1.469 -0.735,0.263 -0.735,0.787 -0.735,1.365 v 25.19 c 0,0.472 0,0.892 -0.052,1.365 -0.053,0.682 -0.578,1.207 -1.26,1.207 -0.367,0.052 -0.787,0.052 -1.154,0.052 z m 31.698,-0.105 h -7.295 c -0.263,0 -0.472,0 -0.735,-0.052 -0.735,-0.053 -1.364,-0.63 -1.417,-1.365 -0.052,-0.42 -0.052,-0.839 -0.052,-1.259 0.052,-5.826 0.052,-11.808 0.052,-17.791 v -18.631 c 0.053,-1.259 0.525,-1.731 1.784,-1.784 2.729,-0.052 5.458,-0.052 8.187,0 1.207,0 1.575,0.367 1.68,1.574 0.052,0.473 0.052,0.893 0.052,1.365 v 34.952 c 0,0.577 -0.052,1.154 -0.105,1.732 -0.052,0.682 -0.577,1.154 -1.259,1.207 -0.315,0.052 -0.577,0.052 -0.892,0.052 z M 97.71,181.173 c -0.368,1.627 -1.207,3.096 -2.414,4.198 -1.365,1.155 -3.044,1.837 -4.829,1.837 -2.676,0.158 -5.3,-0.42 -7.662,-1.679 -0.577,-0.263 -0.944,-0.84 -0.892,-1.47 v -9.499 c 0,-3.148 0.053,-6.297 0,-9.446 -0.052,-0.735 0.367,-1.365 1.05,-1.627 2.886,-1.364 5.877,-1.994 9.026,-1.364 2.204,0.314 4.094,1.731 4.986,3.778 0.787,1.68 1.259,3.516 1.364,5.353 0.315,3.359 0.315,6.718 -0.629,9.919 z m 153.61,-11.178 c 0.157,-1.26 0.524,-2.467 0.997,-3.622 1.574,-3.831 4.88,-5.143 8.239,-4.933 0.945,0.053 1.889,0.263 2.781,0.63 1.365,0.577 2.257,1.837 2.415,3.306 0.157,0.893 0.105,1.837 -0.158,2.729 -0.63,1.89 -2.152,2.677 -3.988,3.044 -1.102,0.263 -2.257,0.368 -3.412,0.263 -2.046,0 -4.146,-0.158 -6.192,-0.473 -0.787,-0.105 -0.787,-0.105 -0.682,-0.944 z M 155.648,135.41 c 0.84,-0.052 1.679,0.105 2.466,0.367 2.834,0.945 4.304,3.412 4.041,6.613 -0.209,2.729 -2.256,4.933 -4.985,5.353 -1.155,0.21 -2.362,0.21 -3.516,0 -2.992,-0.577 -5.196,-2.781 -4.986,-6.56 0.315,-3.726 2.781,-5.773 6.98,-5.773 z"
         id="path20" />
    </g>
  </g>
</svg>
