<?xml version="1.0" encoding="UTF-8" standalone="no"?>
<svg
   width="100"
   height="55"
   viewBox="0 0 100 55"
   version="1.1"
   id="svg38"
   sodipodi:docname="Disney+_logo.svg"
   inkscape:version="1.2.2 (b0a8486541, 2022-12-01)"
   xmlns:inkscape="http://www.inkscape.org/namespaces/inkscape"
   xmlns:sodipodi="http://sodipodi.sourceforge.net/DTD/sodipodi-0.dtd"
   xmlns="http://www.w3.org/2000/svg"
   xmlns:svg="http://www.w3.org/2000/svg">
  <defs
     id="defs42" />
  <sodipodi:namedview
     id="namedview40"
     pagecolor="#ffffff"
     bordercolor="#cccccc"
     borderopacity="1"
     inkscape:showpageshadow="0"
     inkscape:pageopacity="1"
     inkscape:pagecheckerboard="0"
     inkscape:deskcolor="#d1d1d1"
     showgrid="false"
     inkscape:zoom="1.460177"
     inkscape:cx="30.133333"
     inkscape:cy="282.5"
     inkscape:window-width="1920"
     inkscape:window-height="1008"
     inkscape:window-x="1920"
     inkscape:window-y="0"
     inkscape:window-maximized="1"
     inkscape:current-layer="svg38" />
  <!-- Generated by Pixelmator Pro 2.2 -->
  <g
     id="Layer_1"
     transform="matrix(0.09611364,0,0,0.09611364,-0.0446887,0.34689283)">
    <g
       id="group">
      <g
         id="group-1">
        <g
           id="group-2">
          <path
             id="Path"
             d="m 735.8,365.7 c -14.4,3.3 -52.3,5.2 -52.3,5.2 l -4.8,15 c 0,0 18.9,-1.6 32.7,-0.2 0,0 4.5,-0.5 5,5.1 0.2,5.2 -0.4,10.8 -0.4,10.8 0,0 -0.3,3.4 -5.1,4.2 -5.2,0.9 -40.8,2.2 -40.8,2.2 l -5.8,19.5 c 0,0 -2.1,4.5 2.7,3.2 4.5,-1.2 41.8,-8.2 46.7,-7.2 5.2,1.3 11,8.2 9.3,14.6 -2,7.8 -39.2,31.6 -61.9,29.9 0,0 -11.9,0.8 -22,-15.3 -9.4,-15.3 3.6,-44.4 3.6,-44.4 0,0 -5.9,-13.6 -1.6,-18.1 0,0 2.6,-2.3 10,-2.9 l 9.1,-18.9 c 0,0 -10.4,0.7 -16.6,-6.9 -5.8,-7.3 -6.2,-10.6 -1.8,-12.6 4.7,-2.3 48,-10.2 77.8,-9.2 0,0 10.4,-1 19.3,17 -0.1,0 4.3,7.3 -3.1,9 z m -112.1,72.6 c -3.8,9 -13.9,18.6 -26.4,12.6 -12.4,-6 -32.1,-46.3 -32.1,-46.3 0,0 -7.5,-15 -8.9,-14.7 0,0 -1.6,-2.9 -2.6,13.5 -1,16.4 0.2,48.3 -6.3,53.3 -6.2,5 -13.7,3 -17.6,-2.9 -3.5,-5.8 -5,-19.6 -3.1,-43.8 2.3,-24.2 7.9,-50 15.1,-58.1 7.2,-8 13,-2.2 15.2,-0.1 0,0 9.6,8.7 25.5,34.3 l 2.8,4.7 c 0,0 14.4,24.2 15.9,24.1 0,0 1.2,1.1 2.2,0.3 1.5,-0.4 0.9,-8.2 0.9,-8.2 0,0 -3,-26.3 -16.1,-70.9 0,0 -2,-5.6 -0.6,-10.8 1.3,-5.3 6.6,-2.8 6.6,-2.8 0,0 20.4,10.2 30.2,43.4 9.7,33.5 3.1,63.4 -0.7,72.4 z M 523.5,353 c -1.7,3.4 -2.7,8.3 -11.3,9.6 0,0 -82.3,5.6 -86.2,11.4 0,0 -2.9,3.4 1.6,4.4 4.5,0.9 23.1,3.4 32.1,3.9 9.6,0.1 42,0.4 53.6,14.9 0,0 6.9,6.9 6.6,22.5 -0.3,16 -3.1,21.6 -9.3,27.4 -6.5,5.4 -62.3,30.4 -98.3,-8 0,0 -16.6,-18.5 5.7,-32.5 0,0 16.1,-9.7 57,1.7 0,0 12.4,4.5 11.8,9 -0.7,4.8 -10.2,9.9 -24,9.6 -13.4,-0.4 -23.2,-6.8 -21.3,-5.8 1.8,0.7 -14.4,-7.8 -19.4,-2 -5,5.3 -3.8,8.6 1.1,11.9 12.5,7.1 60.8,4.6 75.2,-11.4 0,0 5.7,-6.5 -3,-11.8 -8.7,-5 -33.6,-8 -43.3,-8.5 -9.3,-0.5 -43.9,0.1 -48.9,-9.1 0,0 -5,-6.2 0.5,-23.8 5.8,-18.4 46.1,-25.5 63.5,-27.1 0,0 47.9,-1.7 56.7,8.1 -0.1,0 1.1,2.3 -0.4,5.6 z m -136,107.9 c -5.8,4.3 -18.1,2.4 -21.6,-2.4 -3.5,-4.3 -4.7,-21.4 -4,-48.2 0.7,-27.1 1.3,-60.7 7.1,-66 6.2,-5.4 10,-0.7 12.4,3 2.6,3.6 5.7,7.6 6.4,16.1 0.6,8.5 2.6,53.1 2.6,53.1 0,0 2.6,40.2 -2.9,44.4 z M 400,317.1 c -16.9,5.6 -28.5,3.7 -38.3,-0.5 -4.3,7.5 -6.8,9.8 -10.1,10.3 -4.8,0.5 -9.1,-7.2 -9.9,-9.7 -0.8,-1.9 -3.1,-5.1 -0.3,-12.7 -9.6,-8.6 -10.3,-20.2 -8.7,-28 2.4,-9 18.6,-43.2 67.9,-47.2 0,0 24.1,-1.8 28.2,11.1 h 0.7 c 0,0 23.4,0.1 22.9,20.9 -0.3,20.9 -26,46.9 -52.4,55.8 z m -46,-46.3 c -5,8 -5.2,12.8 -2.9,16.1 5.7,-8.7 16.1,-22.4 31.4,-32.8 -11.8,1 -21.7,6.1 -28.5,16.7 z m 68.1,-13.4 c -15.5,2.3 -39.5,23.1 -50.9,40.1 17.5,3.2 48.4,2 62.1,-25.9 -0.1,0 6.5,-17.3 -11.2,-14.2 z m 420.8,161.1 c -9.3,16.2 -35.4,50 -70.2,42.1 -11.5,27.9 -21.1,56 -26.6,98.2 0,0 -1.2,8.2 -8,5.3 -6.7,-2.4 -17.9,-13.6 -20.1,-29.1 -2.4,-20.4 6.7,-54.9 25.2,-94.4 -5.4,-8.8 -9.1,-21.4 -5.9,-39.3 0,0 4.7,-33.2 38,-63.2 0,0 4,-3.5 6.3,-2.4 2.6,1.1 1.4,11.9 -0.7,17.1 -2.1,5.2 -17,31 -17,31 0,0 -9.3,17.4 -6.7,31.1 17.5,-26.9 57.3,-81.2 82,-64.1 8.3,5.9 12.1,18.8 12.1,32.7 -0.1,12.3 -3,25.3 -8.4,35 z m -7.2,-42.6 c 0,0 -1.4,-10.7 -11.8,1.1 -9,9.9 -25.2,28.6 -38.3,53.9 13.7,-1.5 26.9,-9 30.9,-12.8 6.5,-5.8 21.6,-21.4 19.2,-42.2 z m -485.5,13.6 c -1.9,24.2 -11.2,64.9 -77.1,85 -43.5,13.1 -84.6,6.8 -107,1.1 -0.5,8.9 -1.5,12.7 -2.9,14.2 -1.9,1.9 -16.1,10.1 -23.9,-1.5 C 135.8,482.8 134,472.8 133,463.9 82.6,440.7 59.4,407.3 58.5,405.8 57.4,404.7 45.9,392.7 57.4,378 c 10.8,-13.3 46.1,-26.6 77.9,-32 1.1,-27.2 4.3,-47.7 8.1,-57.1 4.6,-10.9 10.4,-1.1 15.4,6.3 4.2,5.5 6.7,29.2 6.9,48.1 20.8,-1 33.1,0.5 56.3,4.7 30.2,5.5 50.4,20.9 48.6,38.4 -1.3,17.2 -17.1,24.3 -23.1,24.8 -6.3,0.5 -16.1,-4 -16.1,-4 -6.7,-3.2 -0.5,-6 7.6,-9.5 8.8,-4.3 6.8,-8.7 6.8,-8.7 -3.3,-9.6 -42.5,-16.3 -81.5,-16.3 -0.2,21.5 0.9,57.2 1.4,78 27.3,5.2 47.7,4.2 47.7,4.2 0,0 99.6,-2.8 102.6,-66.4 3.1,-63.7 -99.3,-124.8 -175,-144.2 -75.6,-19.8 -118.4,-6 -122.1,-4.1 -4,2 -0.3,2.6 -0.3,2.6 0,0 4.1,0.6 11.2,3 7.5,2.4 1.7,6.3 1.7,6.3 -12.9,4.1 -27.4,1.5 -30.2,-4.4 -2.8,-5.9 1.9,-11.2 7.3,-18.8 5.4,-8 11.3,-7.7 11.3,-7.7 93.5,-32.4 207.4,26.2 207.4,26.2 106.7,54.1 124.9,117.5 122.9,142.1 z M 68,386.2 c -10.6,5.2 -3.3,12.7 -3.3,12.7 19.9,21.4 44.4,34.8 67.7,43.1 2.7,-36.9 2.3,-49.9 2.6,-68.5 -36.4,2.5 -57.4,8.3 -67,12.7 z"
             fill="#01147c"
             fill-opacity="1"
             stroke="none" />
        </g>
      </g>
      <g
         id="group-3">
        <g
           id="group-4">
          <g
             id="group-5">
            <path
               id="Path-1"
               d="m 1040.9,378.6 v 13.2 c 0,2.9 -2.3,5.2 -5.2,5.2 h -62.9 c 0,3.3 0.1,6.2 0.1,8.9 0,19.5 -0.8,35.4 -2.7,53.3 -0.3,2.7 -2.5,4.7 -5.1,4.7 h -13.6 c -1.4,0 -2.7,-0.6 -3.6,-1.6 -0.9,-1 -1.4,-2.4 -1.2,-3.8 1.9,-17.8 2.8,-33.5 2.8,-52.6 0,-2.8 0,-5.7 -0.1,-8.9 h -62.2 c -2.9,0 -5.2,-2.3 -5.2,-5.2 v -13.2 c 0,-2.9 2.3,-5.2 5.2,-5.2 h 61.3 c -1.3,-21.5 -3.9,-42.2 -8.1,-63.2 -0.2,-1.3 0.1,-2.6 0.9,-3.6 0.8,-1 2,-1.6 3.3,-1.6 h 14.7 c 2.3,0 4.2,1.6 4.7,3.9 4.1,21.7 6.7,42.8 8,64.5 h 63.7 c 2.8,0 5.2,2.4 5.2,5.2 z"
               fill="#01147c"
               fill-opacity="1"
               stroke="none" />
          </g>
        </g>
      </g>
      <g
         id="group-6">
        <g
           id="group-7">
          <path
             id="Path-2"
             d="m 200.2,204.3 h -0.1 m -0.7,0.1 c -0.3,0 -0.6,-0.1 -0.9,-0.1 0.3,0.1 0.6,0.1 0.9,0.1 h 0.3 c -0.1,0 -0.2,0 -0.3,0 z m 0,0 c -0.3,0 -0.6,-0.1 -0.9,-0.1 0.3,0.1 0.6,0.1 0.9,0.1 h 0.3 c -0.1,0 -0.2,0 -0.3,0 z"
             fill="none"
             stroke="none" />
          <defs
             id="defs31">
            <radialGradient
               id="radial-gradient"
               gradientUnits="userSpaceOnUse"
               cx="942.52399"
               cy="279.896"
               r="760.12402"
               fx="942.52399"
               fy="279.896">
              <stop
                 offset="0.007"
                 stop-color="#021192"
                 stop-opacity="1"
                 id="stop10" />
              <stop
                 offset="0.03"
                 stop-color="#021096"
                 stop-opacity="1"
                 id="stop12" />
              <stop
                 offset="0.057"
                 stop-color="#010cb4"
                 stop-opacity="1"
                 id="stop14" />
              <stop
                 offset="0.084"
                 stop-color="#0008ce"
                 stop-opacity="1"
                 id="stop16" />
              <stop
                 offset="0.111"
                 stop-color="#0006d7"
                 stop-opacity="1"
                 id="stop18" />
              <stop
                 offset="0.138"
                 stop-color="#0004e1"
                 stop-opacity="1"
                 id="stop20" />
              <stop
                 offset="0.165"
                 stop-color="#0001fa"
                 stop-opacity="1"
                 id="stop22" />
              <stop
                 offset="0.191"
                 stop-color="#0000fe"
                 stop-opacity="1"
                 id="stop24" />
              <stop
                 offset="0.216"
                 stop-color="#0f1eff"
                 stop-opacity="1"
                 id="stop26" />
              <stop
                 offset="1"
                 stop-color="#00ffff"
                 stop-opacity="0"
                 id="stop28" />
            </radialGradient>
          </defs>
          <path
             id="Path-3"
             d="M 955.3,273.9 C 922.8,194 867.9,125.9 796.5,76.9 723.4,26.8 637.7,0.3 548.7,0.3 401.5,0.3 264.9,73.4 183.4,195.9 c -0.9,1.3 -1.1,3 -0.6,4.5 0.5,1.6 1.7,2.7 3.2,3.2 l 11.4,3.9 c 0.7,0.2 1.4,0.3 2,0.3 2.1,0 4.1,-1.1 5.3,-2.8 37.4,-55 88,-100.7 146.4,-132.3 60.3,-32.6 128.6,-49.9 197.5,-49.9 83.3,0 163.6,24.6 232.4,71 67.1,45.3 119.2,108.6 150.7,182.9 0.9,2.2 3.1,3.7 5.5,3.7 h 13.6 c 1.6,0 3.1,-0.8 3.9,-2.1 1,-1.3 1.2,-2.9 0.6,-4.4 z M 199.4,204.4 c -0.3,0 -0.6,-0.1 -0.9,-0.2 0.3,0.1 0.6,0.2 0.9,0.2 h 0.2 c 0,0 -0.1,0 -0.2,0 z m 735,74.2 c 0.3,0.2 0.6,0.4 0.9,0.5 -0.3,-0.2 -0.6,-0.3 -0.9,-0.5 z"
             fill-opacity="1"
             fill="url(#radial-gradient)"
             stroke="none"
             style="fill:url(#radial-gradient)" />
        </g>
      </g>
    </g>
  </g>
</svg>
