<?xml version="1.0" encoding="UTF-8" standalone="no"?>
<svg
   viewBox="0 0 99.999999 22.000001"
   version="1.1"
   id="svg39"
   sodipodi:docname="Globoplay_logo_2020.svg"
   width="100"
   height="22"
   inkscape:version="1.2.2 (b0a8486541, 2022-12-01)"
   xmlns:inkscape="http://www.inkscape.org/namespaces/inkscape"
   xmlns:sodipodi="http://sodipodi.sourceforge.net/DTD/sodipodi-0.dtd"
   xmlns:xlink="http://www.w3.org/1999/xlink"
   xmlns="http://www.w3.org/2000/svg"
   xmlns:svg="http://www.w3.org/2000/svg">
  <sodipodi:namedview
     id="namedview41"
     pagecolor="#ffffff"
     bordercolor="#cccccc"
     borderopacity="1"
     inkscape:showpageshadow="0"
     inkscape:pageopacity="1"
     inkscape:pagecheckerboard="0"
     inkscape:deskcolor="#d1d1d1"
     showgrid="false"
     inkscape:zoom="8.3016603"
     inkscape:cx="63.963109"
     inkscape:cy="16.442494"
     inkscape:window-width="1920"
     inkscape:window-height="1008"
     inkscape:window-x="1920"
     inkscape:window-y="0"
     inkscape:window-maximized="1"
     inkscape:current-layer="svg39" />
  <defs
     id="defs17">
    <style
       type="text/css"
       id="style2">.cls-1{fill:url(#Gradiente_sem_nome_9);}.cls-2{fill:url(#Gradiente_sem_nome_9-2);}.cls-3{fill:url(#Gradiente_sem_nome_9-3);}.cls-4{fill:url(#Gradiente_sem_nome_9-4);}.cls-5{fill:url(#Gradiente_sem_nome_9-5);}.cls-6{fill:url(#Gradiente_sem_nome_9-6);}.cls-7{fill:url(#Gradiente_sem_nome_9-7);}.cls-8{fill:url(#Gradiente_sem_nome_9-8);}.cls-9{fill:url(#Gradiente_sem_nome_9-9);}</style>
    <linearGradient
       id="Gradiente_sem_nome_9"
       x1="2.1800001"
       y1="15"
       x2="145.57001"
       y2="15"
       gradientTransform="matrix(1,0,0,-1,0,34.99)"
       gradientUnits="userSpaceOnUse">
      <stop
         offset="0.12"
         stop-color="#fe012f"
         id="stop4" />
      <stop
         offset="0.95"
         stop-color="#fe8e04"
         id="stop6" />
    </linearGradient>
    <linearGradient
       id="Gradiente_sem_nome_9-2"
       x1="2.3"
       y1="14.84"
       x2="145.85001"
       y2="14.84"
       xlink:href="#Gradiente_sem_nome_9" />
    <linearGradient
       id="Gradiente_sem_nome_9-3"
       x1="2.78"
       y1="22.16"
       x2="144.99001"
       y2="22.16"
       xlink:href="#Gradiente_sem_nome_9" />
    <linearGradient
       id="Gradiente_sem_nome_9-4"
       x1="2.6900001"
       y1="15.24"
       x2="145.55"
       y2="15.24"
       xlink:href="#Gradiente_sem_nome_9" />
    <linearGradient
       id="Gradiente_sem_nome_9-5"
       x1="2.72"
       y1="18.629999"
       x2="145.60001"
       y2="18.629999"
       xlink:href="#Gradiente_sem_nome_9" />
    <linearGradient
       id="Gradiente_sem_nome_9-6"
       x1="2.1900001"
       y1="18.639999"
       x2="145.75999"
       y2="18.639999"
       xlink:href="#Gradiente_sem_nome_9" />
    <linearGradient
       id="Gradiente_sem_nome_9-7"
       x1="2.1900001"
       y1="18.66"
       x2="145.75999"
       y2="18.66"
       xlink:href="#Gradiente_sem_nome_9" />
    <linearGradient
       id="Gradiente_sem_nome_9-8"
       x1="7.6199999"
       y1="22.209999"
       x2="143.91"
       y2="22.209999"
       xlink:href="#Gradiente_sem_nome_9" />
    <linearGradient
       id="Gradiente_sem_nome_9-9"
       x1="2.9200001"
       y1="22.25"
       x2="141.8"
       y2="22.25"
       xlink:href="#Gradiente_sem_nome_9" />
    <linearGradient
       inkscape:collect="always"
       xlink:href="#Gradiente_sem_nome_9"
       id="linearGradient324"
       gradientUnits="userSpaceOnUse"
       gradientTransform="matrix(1,0,0,-1,0,34.99)"
       x1="2.1800001"
       y1="15"
       x2="145.57001"
       y2="15" />
  </defs>
  <g
     id="Camada_2"
     transform="matrix(0.66645609,0,0,0.66645609,-0.00757987,-6.4294992e-4)">
    <g
       id="Camada_1-2">
      <path
         class="cls-1"
         d="M 8.2,32.69 A 12,12 0 0 1 0.9,30.45 C 0.17,29.85 0.03,29.39 0.43,28.66 0.71,28.14 0.96,27.6 1.22,27.09 1.68,26.17 2.12,26.01 3.03,26.55 A 10.11,10.11 0 0 0 8.64,28.1 C 11.85,28 13.06,26 13,23.27 A 5.75,5.75 0 0 1 8.46,25 8.77,8.77 0 0 1 3.46,23.35 8.31,8.31 0 0 1 0.13,15 8.58,8.58 0 0 1 6.49,7.6 6.67,6.67 0 0 1 13.38,9.37 c 0,-0.79 0.06,-1.29 0.39,-1.55 a 3.19,3.19 0 0 1 1.6,-0.24 c 2.56,0 2.5,-0.1 2.48,1.67 0,3.68 0,9 0,12.63 0,4.79 -1.51,10.81 -9.65,10.81 z m 5,-16.37 A 4.23,4.23 0 0 0 9,11.77 4.19,4.19 0 0 0 4.62,16.28 c 0,2.93 1.85,4.58 4.36,4.6 a 4.2,4.2 0 0 0 4.2,-4.56 z"
         id="path19"
         style="fill:url(#linearGradient324)" />
      <path
         class="cls-2"
         d="m 132.57,31.44 c -0.61,-0.32 -0.43,-1 -0.14,-1.51 0.1,-0.2 0.22,-0.4 0.34,-0.6 0.82,-1.59 0.82,-1.61 2.51,-1.21 a 2.06,2.06 0 0 0 2.5,-1 18,18 0 0 0 1.4,-2.68 c 0,0 -4.58,-10.44 -6.67,-15.24 -0.59,-1.35 -0.53,-1.43 0.92,-1.43 0.93,0 1.85,0 2.78,0 a 1.12,1.12 0 0 1 1.24,0.86 c 1.23,3.14 3.9,10 3.9,10 0.51,-1.49 1.09,-3 1.57,-4.36 0.65,-1.87 1.35,-3.72 2,-5.61 a 1.18,1.18 0 0 1 1.37,-0.95 c 0.85,0.06 1.71,0 2.58,0 1.18,0 1.38,0.32 0.94,1.41 -1,2.65 -2.11,5.31 -3.18,8 -1.32,3.28 -3,7.28 -4.3,10.54 -0.82,2 -2.78,4.92 -6,4.92 a 5.77,5.77 0 0 1 -3.76,-1.14 z"
         id="path21"
         style="fill:url(#Gradiente_sem_nome_9-2)" />
      <path
         class="cls-3"
         d="M 51.45,9.14 A 6.82,6.82 0 0 1 56,7.31 a 8.27,8.27 0 0 1 6.58,3.28 c 2.47,3 2.49,8.9 -0.24,11.86 a 7.77,7.77 0 0 1 -11.26,0.9 c -0.12,-0.1 0,1 -0.24,1.31 -0.29,0.56 -3.66,0.52 -4,0 a 1.64,1.64 0 0 1 -0.18,-0.84 c 0,-7.34 0,-14.9 0,-22.24 0,-0.89 0.39,-1.25 1.25,-1.23 0.86,0.02 1.45,0.06 2.19,0 1,0 1.27,0.42 1.27,1.31 0.02,2.15 0.06,7.4 0.08,7.48 z m 4.1,2.65 c -2.39,0 -4.22,1.77 -4.28,4.53 a 4.29,4.29 0 1 0 8.56,0.06 4.26,4.26 0 0 0 -4.28,-4.59 z"
         id="path23"
         style="fill:url(#Gradiente_sem_nome_9-3)" />
      <path
         class="cls-4"
         d="m 90.94,23.5 c 0,2.47 0,4.74 0,7 0,1.67 0,1.67 -1.73,1.67 -0.6,0 -1.2,0 -1.79,0 -0.78,0 -1,-0.36 -1,-1.08 V 8.78 c 0,-0.73 0.28,-1.11 1.06,-1 0.49,0 1.39,0 1.89,0 1.37,0 1.29,0.4 1.29,1.71 4.79,-4.55 11.86,-1.13 13.13,4.7 A 9.12,9.12 0 0 1 99.17,24.57 6.88,6.88 0 0 1 92,24.18 C 91.67,24 91.42,23.8 90.94,23.5 Z m -0.08,-7.2 a 4.37,4.37 0 0 0 4.29,4.64 4.27,4.27 0 0 0 4.32,-4.6 c 0,-2.58 -1.41,-4.45 -4.12,-4.55 a 4.26,4.26 0 0 0 -4.49,4.51 z"
         id="path25"
         style="fill:url(#Gradiente_sem_nome_9-4)" />
      <path
         class="cls-5"
         d="m 126.13,9.34 c 0.22,-1.61 0,-1.63 1.77,-1.61 0.54,0 1,0 1.59,0 0.89,-0.1 1.17,0.4 1.17,1.17 v 14.92 c 0,0.84 -0.36,1.3 -1.27,1.22 -0.46,0 -0.94,0 -1.39,0 -1.59,0 -1.91,0 -1.91,-1.75 a 6.3,6.3 0 0 1 -4.6,2.08 7.15,7.15 0 0 1 -5.25,-1.85 9.32,9.32 0 0 1 0.76,-14.88 7,7 0 0 1 8.35,0.2 z m -8.56,7 c 0,2.71 1.79,4.72 4.24,4.66 a 4.32,4.32 0 0 0 4.3,-4.64 4.39,4.39 0 0 0 -4.34,-4.59 4.32,4.32 0 0 0 -4.2,4.53 z"
         id="path27"
         style="fill:url(#Gradiente_sem_nome_9-5)" />
      <path
         class="cls-6"
         d="m 44.67,16.3 a 8.94,8.94 0 1 1 -17.87,-0.16 8.93,8.93 0 0 1 9,-8.81 8.82,8.82 0 0 1 8.87,8.97 z M 40,16.5 A 4.34,4.34 0 1 0 31.33,16.14 4.53,4.53 0 0 0 35.64,21 4.4,4.4 0 0 0 40,16.5 Z"
         id="path29"
         style="fill:url(#Gradiente_sem_nome_9-6)" />
      <path
         class="cls-7"
         d="m 66.33,16.28 a 8.9009494,8.9009494 0 1 1 17.8,0.26 8.9009494,8.9009494 0 0 1 -17.8,-0.26 z m 13.21,0 a 4.3,4.3 0 0 0 -4.48,-4.53 4.42,4.42 0 0 0 -4.21,4.91 4.47,4.47 0 0 0 4.49,4.34 4.38,4.38 0 0 0 4.2,-4.7 z"
         id="path31"
         style="fill:url(#Gradiente_sem_nome_9-7)" />
      <path
         class="cls-8"
         d="m 110.79,12.8 c 0,3.68 0,7.38 0,11.06 0,0.86 -0.32,1.2 -1.15,1.16 a 20,20 0 0 0 -2.19,0 c -1,0.06 -1.31,-0.4 -1.31,-1.3 V 2 c 0,-1.25 0.17,-1.43 1.41,-1.45 0.69,0 1.39,0 2.09,0 0.85,0 1.15,0.34 1.15,1.17 -0.02,3.7 0,7.4 0,11.08 z"
         id="path33"
         style="fill:url(#Gradiente_sem_nome_9-8)" />
      <path
         class="cls-9"
         d="M 20.1,12.78 V 1.42 c 0,-1.35 0.54,-1.81 2.21,-1.07 1.93,0.84 2.43,1 2.43,2.61 0,6.14 0,13 -0.06,19.31 0,1.23 0.06,1.77 -1.46,2.45 -0.31,0.14 -0.93,0.46 -1.39,0.63 -0.91,0.38 -1.75,0 -1.73,-1.33 0,-2.66 0,-5.33 0,-8 -0.02,-1.02 -0.02,-2.14 0,-3.24 z"
         id="path35"
         style="fill:url(#Gradiente_sem_nome_9-9)" />
    </g>
  </g>
</svg>
