<?xml version="1.0" encoding="UTF-8" standalone="no"?>
<!-- Created with Inkscape (http://www.inkscape.org/) -->

<svg
   width="100"
   height="28"
   viewBox="0 0 26.458333 7.4083333"
   version="1.1"
   id="svg309"
   inkscape:version="1.2.2 (b0a8486541, 2022-12-01)"
   sodipodi:docname="max.svg"
   xmlns:inkscape="http://www.inkscape.org/namespaces/inkscape"
   xmlns:sodipodi="http://sodipodi.sourceforge.net/DTD/sodipodi-0.dtd"
   xmlns="http://www.w3.org/2000/svg"
   xmlns:svg="http://www.w3.org/2000/svg">
  <sodipodi:namedview
     id="namedview311"
     pagecolor="#ffffff"
     bordercolor="#cccccc"
     borderopacity="1"
     inkscape:showpageshadow="0"
     inkscape:pageopacity="1"
     inkscape:pagecheckerboard="0"
     inkscape:deskcolor="#d1d1d1"
     inkscape:document-units="mm"
     showgrid="false"
     inkscape:zoom="0.78395062"
     inkscape:cx="243.6378"
     inkscape:cy="51.661417"
     inkscape:window-width="1920"
     inkscape:window-height="1008"
     inkscape:window-x="1920"
     inkscape:window-y="0"
     inkscape:window-maximized="1"
     inkscape:current-layer="layer1" />
  <defs
     id="defs306" />
  <g
     inkscape:label="Layer 1"
     inkscape:groupmode="layer"
     id="layer1">
    <path
       id="path321"
       style="fill:#002be7;stroke-width:0.0440976"
       d="m 4.1711668,-0.1850585 c -0.7218709,0 -1.4551816,0.32101076 -2.3948927,1.04288193 V -0.00160726 H 0 V 6.8731667 H 1.8908924 V 2.5992682 C 2.7159514,1.9461883 3.093847,1.7397852 3.40341,1.7397852 c 0.3664482,0 0.6072497,0.2292991 0.6072497,0.8021221 V 6.8731667 H 5.901087 V 2.5877953 C 6.7261457,1.9461814 7.0930693,1.7397852 7.4136562,1.7397852 c 0.3668893,0 0.6071981,0.2292991 0.6071981,0.8021221 V 6.8731667 H 9.9113335 V 1.8773993 c 0,-1.54692961 -0.882396,-2.0624578 -1.7303856,-2.0624578 -0.7218709,0 -1.4552472,0.2980735 -2.4178885,1.03140986 C 5.4543785,0.0781781 4.7783858,-0.1850585 4.1711668,-0.1850585 Z m 9.5793122,0 c -1.878978,0 -3.437413,1.6157168 -3.437413,3.6208141 0,2.0050945 1.558435,3.6208626 3.437413,3.6208626 0.928244,0 1.730399,-0.3434768 2.349521,-1.0887181 v 0.9052666 h 1.799115 V -0.00160726 H 16.1 V 0.90366038 C 15.480878,0.15841935 14.678723,-0.1850585 13.750479,-0.1850585 Z m 4.480709,0.18345124 c 0.779146,1.21435656 1.661494,2.30304366 2.692859,3.39173276 -1.031365,1.1341047 -1.913713,2.3145433 -2.692859,3.4830412 h 2.280119 c 0.538391,-0.8708602 1.145617,-1.6615093 1.844952,-2.4062611 0.687431,0.7447518 1.260179,1.5354009 1.799012,2.4062611 h 2.303062 C 25.667723,5.6702756 24.808312,4.5242302 23.776948,3.3901255 24.79685,2.3014364 25.667723,1.1787964 26.458333,-0.00160726 H 24.201159 C 23.639839,0.86925475 23.032666,1.6025252 22.356259,2.3243493 21.668829,1.6025252 21.061604,0.86925475 20.511307,-0.00160726 Z M 14.036664,1.4077644 c 1.122713,0 2.028041,0.9052769 2.028041,2.0279912 0,1.1227117 -0.905328,2.0280391 -2.028041,2.0280391 -1.122714,0 -2.028042,-0.9048882 -2.028042,-2.0280391 0,-1.1231554 0.905328,-2.0279912 2.028042,-2.0279912 z m 0,0.4581628 c -0.859454,0 -1.558407,0.6989081 -1.558407,1.5698284 0,0.8709157 0.698953,1.5698761 1.558407,1.5698761 0.859453,0 1.558354,-0.6989604 1.558354,-1.5698761 0,-0.8709203 -0.698901,-1.5698284 -1.558354,-1.5698284 z" />
  </g>
</svg>
