<?xml version="1.0" encoding="UTF-8" standalone="no"?>
<!-- Generator: Adobe Illustrator 16.0.0, SVG Export Plug-In . SVG Version: 6.00 Build 0)  -->

<svg
   version="1.1"
   id="Layer_1"
   x="0px"
   y="0px"
   width="100"
   height="63"
   viewBox="-161.599 -100.544 100 63.000001"
   enable-background="new -161.599 -100.544 1000 622.214"
   xml:space="preserve"
   sodipodi:docname="Paramount_Plus.svg"
   inkscape:version="1.2.2 (b0a8486541, 2022-12-01)"
   xmlns:inkscape="http://www.inkscape.org/namespaces/inkscape"
   xmlns:sodipodi="http://sodipodi.sourceforge.net/DTD/sodipodi-0.dtd"
   xmlns="http://www.w3.org/2000/svg"
   xmlns:svg="http://www.w3.org/2000/svg"><defs
   id="defs7" /><sodipodi:namedview
   id="namedview5"
   pagecolor="#ffffff"
   bordercolor="#cccccc"
   borderopacity="1"
   inkscape:showpageshadow="0"
   inkscape:pageopacity="1"
   inkscape:pagecheckerboard="0"
   inkscape:deskcolor="#d1d1d1"
   showgrid="false"
   inkscape:zoom="1.245"
   inkscape:cx="426.50602"
   inkscape:cy="311.24498"
   inkscape:window-width="1920"
   inkscape:window-height="1008"
   inkscape:window-x="1920"
   inkscape:window-y="0"
   inkscape:window-maximized="1"
   inkscape:current-layer="Layer_1" />
<path
   fill="#0064ff"
   d="m -117.04916,-68.550358 c -0.2459,-0.102 -0.649,-0.554301 0.0216,-1.813802 l 1.5578,-3.255805 c 0.0473,-0.0984 -0.0664,-0.2216 -0.1374,-0.138 l -1.3621,1.369502 c -0.6445,0.672701 -1.7378,2.563503 -1.9495,2.913404 l -1.65481,2.735503 c 0.1229,-0.0039 0.2258,0.0927 0.2297,0.215601 10e-4,0.0405 -0.008,0.0805 -0.0283,0.1159 l -1.5125,2.540403 c -0.3693,0.630001 0.2942,1.070401 0.3841,0.925401 2.3773,-3.829105 3.76001,-3.523404 3.76001,-3.523404 l 0.7936,-1.837703 c 0.0418,-0.0921 0.001,-0.2006 -0.0911,-0.2424 -0.003,-0.0017 -0.007,-0.0031 -0.0111,-0.0046 z m 5.4048,-31.993642 c -13.59201,0 -24.61043,11.013014 -24.61043,24.598332 -0.007,5.259107 1.68,10.380714 4.81151,14.605819 1.0324,-0.4456 1.6061,-1.111701 2.0159,-1.621802 l 4.58231,-5.857607 c 0.0965,-0.123501 0.2225,-0.220601 0.3665,-0.282501 l 0.6898,-0.2967 7.53451,-9.552413 1.0925,-0.854901 2.245,-3.123304 c 0.058,-0.0808 0.1287,-0.1519 0.2094,-0.2104 l 0.9795,-0.711701 c 0.242,-0.1758 0.56881,-0.1786 0.81361,-0.0068 l 1.1886,0.833901 c 0.6306,0.442301 1.1417,1.033801 1.488,1.721702 l 4.76101,8.358611 c 0.0777,0.1595 0.2098,0.286001 0.3724,0.356801 0.9337,0.4646 1.5041,0.5467 2.7261,1.873502 0.5702,0.618601 3.068803,3.411705 6.570508,7.75261 0.508901,0.696401 1.190201,1.248402 1.976903,1.602002 3.122004,-4.221905 4.803406,-9.335912 4.796006,-14.586819 0,-13.585418 -11.017915,-24.598332 -24.609637,-24.598332 z m -17.97342,25.954134 -1.5957,-0.518001 -0.9857,1.356002 v -1.675802 l -1.5958,-0.518101 1.5958,-0.5181 v -1.676303 l 0.9857,1.356302 1.5957,-0.518001 -0.9859,1.356202 z m -0.3783,5.484907 -0.5183,1.594302 -0.5183,-1.594302 h -1.6771 l 1.3567,-0.985401 -0.5182,-1.594202 1.3568,0.985401 1.3569,-0.985401 -0.5183,1.594202 1.3569,0.985401 z m 0.3203,-12.697016 0.5183,1.594202 -1.3569,-0.985402 -1.3568,0.985402 0.5182,-1.594202 -1.3567,-0.985402 h 1.6771 l 0.5183,-1.594202 0.5184,1.594202 h 1.6771 z m 2.6931,-3.606305 -0.9852,-1.356302 -1.5957,0.518001 0.9858,-1.356102 -0.9858,-1.356202 1.5957,0.518001 0.9858,-1.356202 v 1.676402 l 1.59571,0.517101 -1.59571,0.518201 v 1.676302 z m 4.19431,-5.868608 -0.5183,1.594302 -0.5183,-1.594202 h -1.6772 l 1.3569,-0.985401 -0.5182,-1.594302 1.3568,0.985201 1.3567,-0.985401 -0.5182,1.595602 1.3569,0.985401 h -1.6772 v -0.0012 z m 5.28531,-2.691803 -0.9858,1.356301 v -1.675902 l -1.59581,-0.518 1.59581,-0.518201 v -1.676302 l 0.9858,1.356301 1.595,-0.518 -0.9858,1.356202 0.9859,1.356101 z m 6.69731,-1.536602 0.5183,1.594202 -1.35691,-0.985402 -1.3569,0.985402 0.5177,-1.593502 -1.3567,-0.985402 h 1.6771 l 0.5185,-1.594202 0.51831,1.594202 h 1.6771 z m 6.0053,1.217001 v 1.676302 l -0.9854,-1.356301 -1.5956,0.5181 0.9858,-1.356101 -0.9857,-1.356202 1.5957,0.518 0.9854,-1.356301 v 1.676302 l 1.59571,0.518201 z m 11.128818,16.986422 1.595602,0.518001 0.985501,-1.356302 v 1.676303 l 1.595803,0.5181 -1.595803,0.518101 v 1.676202 l -0.985501,-1.356102 -1.595602,0.518001 0.986901,-1.356202 z m -6.310608,-12.380316 -0.5186,-1.594302 h -1.677 l 1.3564,-0.985401 -0.5171,-1.594402 1.3563,0.985401 1.356302,-0.985201 -0.517201,1.594202 1.356502,0.985401 h -1.677102 z m 3.676105,4.274306 v -1.676202 l -1.595702,-0.518201 1.595702,-0.517101 v -1.677102 l 0.985401,1.356202 1.595702,-0.518001 -0.985401,1.356202 0.985401,1.356102 -1.595702,-0.518001 z m 3.012604,2.621003 0.5188,-1.594202 0.518601,1.594202 h 1.677002 l -1.356302,0.985402 0.518601,1.594202 -1.357702,-0.985402 -1.356402,0.985402 0.518601,-1.594202 -1.357802,-0.985402 z m 1.037301,13.681918 -0.518601,1.594302 -0.5188,-1.594302 h -1.677003 l 1.357802,-0.985401 -0.518601,-1.594202 1.356402,0.985401 1.357702,-0.985401 -0.518601,1.594202 1.356302,0.985401 z m -10.47411,7.37521 c 0.1182,-0.1718 0.3103,-0.643001 -0.0503,-1.516202 l -1.08901,-2.927304 c -0.1478,-0.3737 0.1759,-0.600401 0.39311,-0.3547 0,0 2.0582,2.372203 2.5901,3.362704 l 1.015,1.684302 c 0.873201,0.0564 3.283004,0.1221 5.602707,0.1221 -0.2336,-0.2319 -0.4493,-0.4811 -0.645701,-0.745401 -3.958305,-4.905306 -6.468706,-7.63401 -6.493806,-7.66101 -0.8022,-0.871701 -1.173,-1.039201 -1.7849,-1.317801 -0.0886,-0.0402 -0.1847,-0.0836 -0.2836,-0.130701 v 0.744701 c 0.006,0.0503 -0.0299,0.096 -0.0803,0.102001 -0.0407,0.0048 -0.0798,-0.018 -0.0955,-0.0559 l -5.81951,-10.218413 -0.0162,-0.0323 c -0.2427,-0.481301 -0.6004,-0.895301 -1.0414,-1.205202 l -0.5677,-0.3989 -2.77631,6.402108 c 0.3317,-10e-5 0.6008,0.268701 0.601,0.600401 1e-4,0.0821 -0.0167,0.1634 -0.0494,0.2388 l -2.5651,5.931208 h 2.3546 c 0.91,0 1.8114,0.1771 2.65361,0.522001 l 0.6206,0.2543 c 0,0 -1.87251,3.850905 -1.87251,5.878608 0.003,0.3688 0.0542,0.735501 0.1529,1.090801 h 4.31631 l -0.1999,-1.215501 c 1.6932,0.378 3.4062,0.660401 5.13111,0.845901 v -6e-4 z m -33.30495,6.239808 c 0,-3.961405 -4.2017,-5.868908 -9.19351,-5.868908 -5.33981,0 -10.23921,2.365703 -12.03752,6.033908 -0.4963,0.977302 -0.7542,2.058403 -0.7528,3.154604 -0.0227,0.947902 0.2396,1.880703 0.7528,2.677804 0.77051,1.137701 2.14661,1.852802 4.16521,1.852802 2.4776,0 4.44111,-1.357601 4.44111,-3.723405 0,0 0.0364,-0.6598 -0.7341,-0.6598 -0.62391,0 -0.78931,0.4399 -0.77081,0.6598 0.0922,1.852503 -1.0092,3.338305 -2.9728,3.338305 -2.2014,0 -3.1197,-1.870803 -3.1197,-3.869805 0,-4.090206 3.0829,-6.805009 6.2942,-7.978611 1.50071,-0.5667 3.09441,-0.847001 4.69851,-0.825901 3.63331,0 6.60611,1.394202 6.60611,5.136107 0,3.117504 -2.624,5.777107 -5.76231,6.015708 l 0.1284,-0.421701 c 0.6425,-2.292903 1.4315,-4.805406 2.71571,-6.658008 0.0739,-0.110701 0.202,-0.293601 0.3489,-0.476801 l -0.1833,-0.2203 c -0.2746,0.1666 -0.53831,0.3503 -0.78971,0.5501 -6.0183,4.695606 -6.2011,17.901124 -14.22091,17.901124 -0.2762,0 -0.5519,-0.0185 -0.82561,-0.0551 -1.6696,-0.275001 -2.551,-1.394102 -2.551,-2.952404 0,-0.311801 0.1103,-0.733901 0.1103,-0.972001 0.0127,-0.443001 -0.3361,-0.812301 -0.7791,-0.825201 -0.004,-1e-4 -0.007,-1e-4 -0.0101,-1e-4 h -0.0915 c -0.7155,0 -1.0092,0.5678 -1.0276,1.375401 -0.0548,2.329403 1.6696,3.686205 4.3309,3.943405 0.29331,0.0182 0.58701,0.0364 0.89901,0.0364 6.2571,0 10.09231,-4.732007 11.72571,-10.472914 0.8273,-0.097 1.6441,-0.268701 2.4403,-0.513101 2.90001,-0.808001 6.16521,-2.751203 6.16521,-6.181407 z m 59.603181,1.375402 h -2.202903 l -0.494901,1.155701 -0.862901,1.944103 h -1.026901 l -0.313301,0.660401 h 1.065202 l -1.285302,2.843003 c -0.916101,1.999103 -2.347903,3.961706 -3.173804,3.961706 -0.1832,0 -0.294001,-0.0738 -0.294001,-0.256501 0,-0.1827 0.0547,-0.349 0.257101,-0.862301 0.2571,-0.605701 0.679601,-1.485802 0.991401,-2.127603 0.458001,-0.935301 1.192402,-2.384303 1.192402,-3.099604 0,-0.715401 -0.458101,-1.284101 -1.357902,-1.284101 -1.009101,0 -1.926703,0.6059 -2.771804,1.485402 l 0.551101,-1.320402 h -2.072903 l -1.688902,3.851705 c -0.678201,1.357302 -2.055303,3.613305 -2.918204,3.613305 -0.1832,0 -0.2571,-0.1103 -0.2571,-0.293501 0.0179,-0.1647 0.0612,-0.3257 0.1286,-0.4771 0.0738,-0.165001 1.083001,-2.530904 1.083001,-2.530904 l 1.835103,-4.200205 h -2.238403 l -1.780502,4.089805 c -0.549601,1.265802 -1.944303,3.411705 -2.844204,3.411705 -0.1567,0.0153 -0.296401,-0.0992 -0.311701,-0.256301 0,0 0,0 0,-3e-4 v -0.0738 c 0,-0.2198 0.165501,-0.623601 0.294101,-0.917201 l 0.935301,-2.053803 1.926603,-4.200205 h -2.219203 l -0.441801,0.953701 c -0.3294,0.641801 -0.880601,1.393802 -1.761102,1.393802 -0.422501,0 -0.623501,-0.1646 -0.715101,-0.330001 -0.1285,-1.412301 -1.028301,-2.164402 -2.349301,-2.164402 -1.8351,0 -3.13811,1.082101 -4.00111,2.402903 -0.5653,0.910301 -1.0094,1.890502 -1.3206,2.915804 -0.7893,1.302601 -1.6146,2.311603 -2.2754,2.311603 -0.1653,0 -0.2756,-0.0922 -0.2756,-0.312001 0,-0.2201 0.2204,-0.715101 0.2938,-0.899201 l 1.4497,-3.081104 c 0.4037,-0.953301 0.6796,-1.577002 0.6796,-2.200803 0,-0.660401 -0.458,-1.137601 -1.2116,-1.137601 -1.046,0 -2.184,0.6057 -3.083,1.595702 0.0305,-0.1571 0.0427,-0.317301 0.0366,-0.477101 0,-0.733801 -0.36671,-1.119101 -1.11951,-1.119101 -0.9539,0 -1.9447,0.5692 -2.8438,1.595802 l 0.5873,-1.431302 h -2.0189 l -1.7062,3.852805 c -0.80731,1.816002 -2.11021,3.613905 -2.84451,3.613905 -0.1649,0 -0.2751,-0.0924 -0.2751,-0.312201 0,-0.3483 0.3854,-1.210401 0.532,-1.559002 l 2.25731,-5.117007 c 0.1651,-0.385 -0.91781,-0.6238 -2.29401,-0.6238 -1.4129,0 -2.8627,0.697301 -3.9267,1.595702 -0.7523,0.623301 -1.3029,0.935401 -1.5787,0.935401 -0.0899,0.0192 -0.17851,-0.0381 -0.19791,-0.1279 -0.003,-0.0122 -0.004,-0.0246 -0.004,-0.037 0,-0.311901 0.75231,-1.192702 0.75231,-1.871103 0,-0.3117 -0.1649,-0.5137 -0.5875,-0.5137 -0.80691,0 -1.76161,0.770501 -2.45881,1.577202 l 0.5873,-1.412502 h -1.9815 l -1.7063,3.852005 c -0.8076,1.816002 -2.14721,3.705405 -2.88121,3.705405 -0.1653,0 -0.2749,-0.0915 -0.2749,-0.312001 0,-0.3484 0.367,-1.191701 0.5687,-1.632402 l 2.25721,-5.135307 c 0.1651,-0.385 -0.9177,-0.6238 -2.29421,-0.6238 -2.0369,0 -4.0189,1.375601 -5.0647,2.788003 -1.1559,1.521802 -1.9447,3.136104 -1.9633,4.456906 -0.018,1.063702 0.5318,1.723902 1.6331,1.723902 1.2296,0 2.2208,-0.971901 2.7893,-1.705802 -0.0337,0.1452 -0.0584,0.292201 -0.0739,0.440401 0,0.733201 0.2937,1.265301 1.1927,1.265301 0.7889,0 1.835,-0.6603 2.67921,-1.705802 l -0.6798,1.559202 h 2.1467 l 2.1105,-4.787206 c 0.6989,-1.558702 1.488,-2.365403 1.7074,-2.365403 0.0505,-0.0097 0.0993,0.0233 0.1091,0.0738 0.001,0.0058 0.002,0.0118 0.002,0.0178 0,0.1652 -0.3301,0.605901 -0.3301,1.008701 0,0.402901 0.2195,0.715101 0.8076,0.715101 0.458,0 0.9721,-0.2202 1.43101,-0.514 -1.08261,1.467901 -1.81731,3.008404 -1.81731,4.274305 -0.0181,1.063802 0.5318,1.723902 1.63331,1.723902 1.1558,0 2.2385,-1.100501 2.8257,-1.834202 -0.0221,0.1704 -0.0343,0.3418 -0.0366,0.513501 0,0.715701 0.4039,1.320701 1.2295,1.320701 0.9172,0 1.6515,-0.5689 2.569,-1.687202 l -0.6796,1.540602 h 2.20161 l 2.0183,-4.567206 c 0.8809,-1.980902 2.0734,-3.045104 2.6607,-3.045104 0.1467,-0.0151 0.2782,0.0915 0.2935,0.238401 0,3e-4 0,6e-4 10e-5,9e-4 v 0.0546 c -0.0242,0.2228 -0.0863,0.4399 -0.1834,0.6418 l -2.8967,6.694809 h 2.2571 l 2.0554,-4.659006 c 0.88031,-1.998902 1.85331,-2.971504 2.58721,-2.971504 0.2201,0 0.3122,0.1108 0.3122,0.348601 -0.0196,0.2554 -0.0882,0.5047 -0.2019,0.734501 l -1.98211,4.218105 c -0.1825,0.406001 -0.2942,0.840001 -0.3304,1.283602 0,0.642101 0.3485,1.211601 1.33991,1.211601 1.2854,0 2.2571,-0.972101 3.3577,-2.421003 v 0.311601 c 0.0921,1.155501 0.7342,2.164303 2.4406,2.164303 2.01841,0 3.65241,-1.394002 4.64241,-3.612805 0.3744,-0.780101 0.616701,-1.617302 0.716501,-2.477003 0.221,0.1121 0.468,0.163 0.715101,0.1478 0.3335,0.0037 0.662101,-0.0785 0.954501,-0.238801 l -0.3486,0.751701 c -0.404901,0.843902 -0.845202,1.779403 -1.192402,2.568604 -0.2199,0.4666 -0.3508,0.970201 -0.3855,1.485002 0,0.788401 0.4402,1.357502 1.338601,1.357502 0.898401,0 2.129103,-0.843802 3.009804,-2.035903 h 0.0191 c -0.059,0.2465 -0.0901,0.498501 -0.0931,0.751801 0,0.660501 0.2024,1.284202 1.119902,1.284202 1.065301,0 1.889802,-0.770501 2.697903,-1.742803 l -0.679601,1.540902 h 2.220603 l 1.780602,-4.035105 c 1.009202,-2.274303 2.018303,-3.649605 2.953404,-3.649605 0.160701,-0.0057 0.298101,0.1148 0.313301,0.275001 v 0.0542 c 0,0.3855 -0.551101,1.431001 -1.046102,2.476303 -0.4595,0.953801 -0.808201,1.687102 -1.046101,2.256303 -0.2208,0.4794 -0.3514,0.995201 -0.3855,1.521902 0,0.696601 0.3855,1.228701 1.248501,1.228701 1.283902,0 2.587104,-1.247201 3.283004,-2.182802 -0.157,0.4485 -0.2433,0.918601 -0.2557,1.393601 0,1.284502 0.769701,1.926303 1.852703,1.926303 0.7196,-0.0055 1.419101,-0.2363 2.000602,-0.660001 0.843701,-0.587201 1.523402,-1.467402 2.092203,-2.274403 l -0.385501,-0.3672 c -0.5319,0.752201 -1.119901,1.467702 -1.725802,1.907902 -0.3193,0.2699 -0.719901,0.424901 -1.137801,0.440201 -0.457901,0 -0.752001,-0.238701 -0.752001,-0.825101 0,-0.586301 0.2748,-1.375902 0.697501,-2.439904 0.0176,-0.0179 0.6234,-1.375501 1.192301,-2.677303 0.477201,-1.101302 0.954401,-2.164603 1.046101,-2.384703 h 1.449502 l 0.293801,-0.660401 h -1.431502 z m -62.593581,10.583114 c -0.3118,0 -0.532,-0.11 -0.532,-0.513501 0.0182,-1.082301 0.9171,-3.008004 2.0372,-4.548906 0.7888,-1.063801 1.8163,-1.852102 2.9174,-1.852102 l -1.3948,3.117404 c -1.046,2.348103 -2.1837,3.797105 -3.0278,3.797105 z m 13.72612,0 c -0.3117,0 -0.5319,-0.11 -0.55,-0.513501 0.0182,-1.082301 0.9172,-3.008004 2.0369,-4.548906 0.7886,-1.063801 1.8165,-1.852102 2.9175,-1.852102 l -1.395,3.117504 c -1.064,2.403403 -2.1466,3.797105 -3.0097,3.797105 h 3e-4 z m 24.36883,-6.070608 c -0.0547,1.191801 -1.1008,4.071005 -2.3301,5.795807 -0.49491,0.696801 -0.91761,0.898302 -1.28391,0.898302 -0.5143,0 -0.662,-0.422101 -0.5882,-1.045402 0.1094,-1.082001 1.0092,-3.613105 2.25771,-5.355607 0.5688,-0.788701 0.9545,-1.118901 1.3947,-1.118901 0.4404,10e-5 0.5689,0.3671 0.5498,0.825801 z m 34.248843,-1.412802 2.021203,-4.664906 h -2.392003 l -2.021303,4.664906 h -5.084106 l -0.848101,1.956302 h 5.085606 l -2.021202,4.664907 h 2.392003 l 2.021402,-4.664907 h 5.084007 l 0.846701,-1.956302 z"
   id="path2"
   style="stroke-width:0.1" />
</svg>
